<?xml version="1.0" encoding="utf-8"?>
<!-- Generator: Adobe Illustrator 27.5.0, SVG Export Plug-In . SVG Version: 6.00 Build 0)  -->
<svg xmlns="http://www.w3.org/2000/svg"
    version="1.1"
    viewBox="0 0 192 96">
    <rect id="AdjustmentLayer" fill="none" width="192" height="96" />
    <g fill="#2AABEE">
        <path fill-opacity="0.25" d="M174.2400055,91.1999969H17.7600002c-7.1576109,0-12.96-5.8023834-12.96-12.9599991V17.7600002 c0-7.1576109,5.8023891-12.96,12.96-12.96h156.480011c7.157608,0,12.9599915,5.8023891,12.9599915,12.96v60.4799957 C187.1999969,85.3976135,181.3976135,91.1999969,174.2400055,91.1999969z" />
        <path d="M67.2699051,31.8971405h0.0080261 M67.2699051,31.8971405 c-2.0883789,10.735199-4.1767502,21.4704781-6.2651215,32.2056808l-9.3434563-8.8383522l-6.3096161,5.4532471 c0.6256828-2.5052261,1.2513847-5.0106239,1.8771782-7.5158463c4.3489876-4.4996262,8.698082-8.9993324,13.0471802-13.4989395 c0.286747-0.2968178,0.0349922-0.7322769-0.3044281-0.7322769c-0.071312,0-0.1465607,0.0191879-0.2213593,0.0629311 L40.2060738,50.4649315l-8.2637463-3.3803062C43.7181816,42.0221672,55.4940491,36.9595985,67.2699051,31.8971405 M67.2693481,27.9628887c-0.0583801,0-0.1167374,0.001297-0.175148,0.0038986 c-0.5183563,0.0227833-1.0106201,0.1458473-1.4579391,0.3503056l-17.5839806,7.5594254l-17.6637726,7.5937424 c-1.4560261,0.6259422-2.3942776,2.0644341-2.380228,3.6492424c0.0140514,1.5847969,0.9776592,3.0064278,2.44454,3.6064644 l8.2637444,3.3803024c0.4789429,0.1959114,0.9849663,0.2928734,1.4893417,0.2928734 c0.6894493,0,1.3758888-0.181118,1.9864616-0.5382385l0.956604-0.5595169l-1.3017082,5.2117271l-0.3125191,1.2513008 c-0.4156303,1.6641693,0.294838,3.4057884,1.7558746,4.304409c0.635643,0.3909454,1.3496361,0.5831299,2.0603294,0.5831299 c0.9228592,0,1.8401756-0.3240356,2.5733337-0.9576836l3.617981-3.1269302l6.7589493,6.3935585 c0.7415962,0.7015152,1.7131081,1.07621,2.7040062,1.07621c0.4020538,0,0.8072701-0.061676,1.201664-0.1882324 c1.3664055-0.4384842,2.385685-1.5861664,2.6597176-2.9947968l3.1325607-16.1028442l3.0963135-15.9165077 c0.0735855-0.3004303,0.112648-0.6145325,0.112648-0.9375877c0-2.1672363-1.748497-3.9251728-3.9136047-3.9341717 C67.2860947,27.9629154,67.2777786,27.9628887,67.2693481,27.9628887L67.2693481,27.9628887z M67.2699051,35.8313484h0.0080261 H67.2699051L67.2699051,35.8313484z" />
        <path d="M96.4399414,33.5751953h-3.199707v-2.0478516h8.5600586v2.0478516h-3.2001953v9.4082031h-2.1601562V33.5751953z M103.5917969,42.6796875c-0.6503906-0.3740234-1.159668-0.8886719-1.527832-1.5439453 c-0.3681641-0.65625-0.5517578-1.3945312-0.5517578-2.2167969c0-0.7783203,0.1811523-1.5009766,0.5439453-2.1679688 c0.3623047-0.6660156,0.8637695-1.1972656,1.5039062-1.5917969s1.3544922-0.5917969,2.144043-0.5917969 c0.8422852,0,1.5678711,0.1816406,2.1757812,0.5439453c0.6079102,0.3632812,1.0693359,0.8583984,1.3842773,1.4882812 c0.3144531,0.6289062,0.4716797,1.328125,0.4716797,2.0957031c0,0.2451172-0.015625,0.4804688-0.0478516,0.7041016h-6.1279297 c0.1064453,0.6503906,0.3652344,1.1435547,0.7758789,1.4804688c0.4106445,0.3359375,0.9042969,0.5039062,1.4799805,0.5039062 c0.4799805,0,0.8935547-0.1044922,1.2402344-0.3125c0.3461914-0.2080078,0.6210938-0.4882812,0.8237305-0.8398438 l1.6962891,0.8320312c-0.8320312,1.4501953-2.0961914,2.1757812-3.7919922,2.1757812 C104.9731445,43.2392578,104.2426758,43.0527344,103.5917969,42.6796875z M107.7202148,37.9111328 c-0.0214844-0.2558594-0.1147461-0.5087891-0.2802734-0.7597656c-0.1655273-0.25-0.3945312-0.4580078-0.6879883-0.6240234 c-0.293457-0.1650391-0.637207-0.2480469-1.0317383-0.2480469c-0.5014648,0-0.9311523,0.1464844-1.2880859,0.4404297 c-0.3574219,0.2929688-0.6162109,0.6904297-0.7758789,1.1914062H107.7202148z M111.3520508,31.5273438h2.0961914v11.4560547h-2.0961914V31.5273438z M117.0649414,42.6796875c-0.6513672-0.3740234-1.1601562-0.8886719-1.5283203-1.5439453 c-0.3681641-0.65625-0.5517578-1.3945312-0.5517578-2.2167969c0-0.7783203,0.1806641-1.5009766,0.5439453-2.1679688 c0.3623047-0.6660156,0.8642578-1.1972656,1.5039062-1.5917969s1.3544922-0.5917969,2.1435547-0.5917969 c0.8427734,0,1.5683594,0.1816406,2.1767578,0.5439453c0.6074219,0.3632812,1.0693359,0.8583984,1.3837891,1.4882812 c0.3144531,0.6289062,0.4716797,1.328125,0.4716797,2.0957031c0,0.2451172-0.015625,0.4804688-0.0478516,0.7041016h-6.1279297 c0.1064453,0.6503906,0.3652344,1.1435547,0.7763672,1.4804688c0.4101562,0.3359375,0.9033203,0.5039062,1.4794922,0.5039062 c0.4804688,0,0.8935547-0.1044922,1.2402344-0.3125s0.6210938-0.4882812,0.8242188-0.8398438l1.6953125,0.8320312 c-0.8320312,1.4501953-2.0957031,2.1757812-3.7919922,2.1757812 C118.4458008,43.2392578,117.715332,43.0527344,117.0649414,42.6796875z M121.1928711,37.9111328 c-0.0214844-0.2558594-0.1152344-0.5087891-0.2802734-0.7597656c-0.1650391-0.25-0.3945312-0.4580078-0.6875-0.6240234 c-0.2939453-0.1650391-0.6376953-0.2480469-1.0322266-0.2480469c-0.5019531,0-0.9306641,0.1464844-1.2880859,0.4404297 c-0.3574219,0.2929688-0.6162109,0.6904297-0.7763672,1.1914062H121.1928711z M126.0874023,45.9990234c-0.6826172-0.4638672-1.1416016-1.0214844-1.3759766-1.671875l1.9677734-0.7998047 c0.1708984,0.4052734,0.4326172,0.7255859,0.7841797,0.9599609s0.7519531,0.3525391,1.2001953,0.3525391 c0.6611328,0,1.1865234-0.203125,1.5761719-0.6083984c0.3886719-0.4052734,0.5839844-0.9814453,0.5839844-1.7285156v-0.6396484 h-0.1279297c-0.2568359,0.3632812-0.5927734,0.6396484-1.0087891,0.8320312s-0.890625,0.2880859-1.4238281,0.2880859 c-0.671875,0-1.2988281-0.1728516-1.8798828-0.5195312s-1.0478516-0.8378906-1.4003906-1.4726562 c-0.3515625-0.6347656-0.5273438-1.3730469-0.5273438-2.2158203s0.1757812-1.5810547,0.5273438-2.2158203 c0.3525391-0.6347656,0.8193359-1.125,1.4003906-1.4726562c0.5810547-0.3457031,1.2080078-0.5195312,1.8798828-0.5195312 c0.5332031,0,1.0078125,0.0957031,1.4238281,0.2880859s0.7519531,0.4697266,1.0087891,0.8320312h0.1279297v-0.8642578h2.015625 v7.6005859c0,0.8740234-0.1708984,1.6318359-0.5117188,2.2714844c-0.3417969,0.6396484-0.8271484,1.1337891-1.4560547,1.4804688 c-0.6298828,0.3457031-1.3652344,0.5195312-2.2080078,0.5195312 C127.628418,46.6953125,126.7700195,46.4638672,126.0874023,45.9990234z M130.199707,40.4638672 c0.4160156-0.4111328,0.6240234-0.9736328,0.6240234-1.6884766c0-0.7363281-0.2060547-1.3037109-0.6162109-1.7041016 c-0.4111328-0.3994141-0.9150391-0.5996094-1.5117188-0.5996094c-0.5976562,0-1.1044922,0.2021484-1.5205078,0.6074219 c-0.4160156,0.40625-0.6240234,0.9707031-0.6240234,1.6962891s0.2080078,1.2910156,0.6240234,1.6962891 s0.9228516,0.6074219,1.5205078,0.6074219C129.2817383,41.0791016,129.7836914,40.8740234,130.199707,40.4638672z M134.8881836,34.8232422h1.9677734v1.0878906h0.1279297 c0.2021484-0.3837891,0.5175781-0.7011719,0.9443359-0.9521484c0.4257812-0.25,0.8955078-0.3759766,1.4072266-0.3759766 c0.3740234,0,0.7148438,0.0595703,1.0244141,0.1767578v2.0957031c-0.2880859-0.1064453-0.53125-0.1835938-0.7285156-0.2324219 c-0.1972656-0.0478516-0.4072266-0.0712891-0.6318359-0.0712891c-0.6181641,0-1.109375,0.2236328-1.4716797,0.671875 c-0.3632812,0.4482422-0.5439453,1.0136719-0.5439453,1.6953125v4.0644531h-2.0957031V34.8232422z M141.831543,42.4794922c-0.5546875-0.5068359-0.8320312-1.1708984-0.8320312-1.9921875 c0-0.5439453,0.1445312-1.0234375,0.4326172-1.4394531s0.6826172-0.7363281,1.1835938-0.9609375 c0.5019531-0.2236328,1.0566406-0.3359375,1.6640625-0.3359375c0.8427734,0,1.5625,0.1230469,2.1601562,0.3681641v-0.3515625 c0-0.4482422-0.1679688-0.8105469-0.5039062-1.0878906s-0.7871094-0.4160156-1.3525391-0.4160156 c-0.3837891,0-0.7539062,0.0878906-1.1113281,0.2636719s-0.6533203,0.4082031-0.8886719,0.6962891l-1.34375-1.0566406 c0.3945312-0.5117188,0.890625-0.90625,1.4882812-1.1835938c0.5966797-0.2773438,1.2480469-0.4160156,1.9521484-0.4160156 c1.2480469,0,2.1972656,0.2880859,2.8476562,0.8642578s0.9765625,1.4189453,0.9765625,2.5273438v5.0244141h-2.0644531v-0.8320312 h-0.1279297c-0.2451172,0.3203125-0.5683594,0.5810547-0.9677734,0.7841797 c-0.4003906,0.2021484-0.8613281,0.3037109-1.3847656,0.3037109 C143.0961914,43.2392578,142.3862305,42.9863281,141.831543,42.4794922z M145.9038086,41.0234375 c0.3574219-0.3896484,0.5361328-0.8457031,0.5361328-1.3681641c-0.5439453-0.2558594-1.1152344-0.3837891-1.7119141-0.3837891 c-1.0878906,0-1.6318359,0.4052734-1.6318359,1.2158203c0,0.3310547,0.1171875,0.5996094,0.3515625,0.8076172 s0.5703125,0.3125,1.0078125,0.3125C145.0639648,41.6074219,145.5463867,41.4130859,145.9038086,41.0234375z M150.4399414,34.8232422h1.9682617v1.0244141h0.1279297 c0.2558594-0.3945312,0.5996094-0.7070312,1.0322266-0.9365234c0.4316406-0.2285156,0.9140625-0.34375,1.4472656-0.34375 c0.5761719,0,1.078125,0.1357422,1.5039062,0.4082031c0.4267578,0.2714844,0.7314453,0.6162109,0.9121094,1.0322266 c0.2666016-0.4267578,0.6328125-0.7734375,1.0966797-1.0400391s1.0097656-0.4003906,1.6396484-0.4003906 c0.9277344,0,1.6347656,0.2851562,2.1201172,0.8564453c0.4853516,0.5703125,0.7275391,1.3408203,0.7275391,2.3115234v5.2480469 h-2.0800781v-4.8642578c0-0.5117188-0.1191406-0.90625-0.359375-1.1835938s-0.5732422-0.4160156-1-0.4160156 c-0.5439453,0-0.9785156,0.2158203-1.3037109,0.6474609c-0.3261719,0.4326172-0.4882812,1-0.4882812,1.7041016v4.1123047 h-2.0957031v-4.8642578c0-0.5117188-0.1259766-0.90625-0.3759766-1.1835938 c-0.2509766-0.2773438-0.6064453-0.4160156-1.0644531-0.4160156c-0.5117188,0-0.9257812,0.2158203-1.2402344,0.6474609 c-0.3144531,0.4326172-0.4716797,1-0.4716797,1.7041016v4.1123047h-2.0961914V34.8232422z M95.0161133,65.1992188c-0.6826172-0.4638672-1.1416016-1.0214844-1.3759766-1.671875l1.9677734-0.7998047 c0.1708984,0.4052734,0.4321289,0.7255859,0.7841797,0.9599609s0.7519531,0.3525391,1.2001953,0.3525391 c0.6611328,0,1.1865234-0.203125,1.5756836-0.6083984s0.5839844-0.9814453,0.5839844-1.7285156v-0.6396484h-0.1279297 c-0.2558594,0.3632812-0.5917969,0.6396484-1.0078125,0.8320312s-0.890625,0.2880859-1.4243164,0.2880859 c-0.671875,0-1.2983398-0.1728516-1.8798828-0.5195312s-1.0478516-0.8378906-1.3999023-1.4726562 s-0.527832-1.3730469-0.527832-2.2158203s0.1757812-1.5810547,0.527832-2.2158203s0.8183594-1.125,1.3999023-1.4726562 c0.581543-0.3457031,1.2080078-0.5195312,1.8798828-0.5195312c0.5336914,0,1.0083008,0.0957031,1.4243164,0.2880859 s0.7519531,0.4697266,1.0078125,0.8320312h0.1279297v-0.8642578h2.0161133v7.6005859 c0,0.8740234-0.1708984,1.6318359-0.5117188,2.2714844c-0.3417969,0.6396484-0.8271484,1.1337891-1.4560547,1.4804688 c-0.6298828,0.3457031-1.3657227,0.5195312-2.2080078,0.5195312 C96.5571289,65.8955078,95.6987305,65.6640625,95.0161133,65.1992188z M99.1279297,59.6640625 c0.4160156-0.4111328,0.6240234-0.9736328,0.6240234-1.6884766c0-0.7363281-0.2055664-1.3037109-0.6157227-1.7041016 c-0.4106445-0.3994141-0.9150391-0.5996094-1.512207-0.5996094c-0.5976562,0-1.1040039,0.2021484-1.5200195,0.6074219 c-0.4160156,0.40625-0.6240234,0.9707031-0.6240234,1.6962891s0.2080078,1.2910156,0.6240234,1.6962891 s0.9223633,0.6074219,1.5200195,0.6074219C98.2104492,60.2792969,98.7119141,60.0742188,99.1279297,59.6640625z M103.815918,54.0234375h1.9682617v1.0878906h0.1279297 c0.2021484-0.3837891,0.5170898-0.7011719,0.9438477-0.9521484c0.4267578-0.25,0.8959961-0.3759766,1.4082031-0.3759766 c0.3730469,0,0.7143555,0.0595703,1.0239258,0.1767578v2.0957031c-0.2880859-0.1064453-0.5307617-0.1835938-0.7280273-0.2324219 c-0.1977539-0.0478516-0.4082031-0.0712891-0.6318359-0.0712891c-0.6191406,0-1.1098633,0.2236328-1.472168,0.671875 c-0.362793,0.4482422-0.5439453,1.0136719-0.5439453,1.6953125v4.0644531h-2.0961914V54.0234375z M111.815918,61.8720703c-0.6611328-0.3789062-1.1757812-0.8964844-1.5439453-1.5527344 c-0.3681641-0.6552734-0.5517578-1.3945312-0.5517578-2.2158203c0-0.8105469,0.1835938-1.546875,0.5517578-2.2080078 s0.8828125-1.1816406,1.5439453-1.5595703c0.6611328-0.3789062,1.4135742-0.5683594,2.2568359-0.5683594 c0.8310547,0,1.578125,0.1894531,2.2392578,0.5683594c0.6611328,0.3779297,1.1757812,0.8984375,1.5439453,1.5595703 s0.5517578,1.3974609,0.5517578,2.2080078c0,0.8212891-0.1835938,1.5605469-0.5517578,2.2158203 c-0.3681641,0.65625-0.8828125,1.1738281-1.5439453,1.5527344c-0.6611328,0.3779297-1.4082031,0.5673828-2.2392578,0.5673828 C113.2294922,62.4394531,112.4770508,62.25,111.815918,61.8720703z M115.1918945,60.2158203 c0.3417969-0.1923828,0.6132812-0.4697266,0.8164062-0.8320312c0.2021484-0.3623047,0.3037109-0.7890625,0.3037109-1.2802734 c0-0.4794922-0.1015625-0.9013672-0.3037109-1.2636719c-0.203125-0.3623047-0.4746094-0.640625-0.8164062-0.8320312 c-0.3417969-0.1923828-0.7148438-0.2880859-1.1191406-0.2880859c-0.40625,0-0.7792969,0.0957031-1.1206055,0.2880859 c-0.3417969,0.1914062-0.6162109,0.4697266-0.8242188,0.8320312s-0.3120117,0.7841797-0.3120117,1.2636719 c0,0.4804688,0.1040039,0.9042969,0.3120117,1.2724609c0.2080078,0.3671875,0.4824219,0.6474609,0.8242188,0.8398438 c0.3413086,0.1914062,0.7143555,0.2880859,1.1206055,0.2880859 C114.4770508,60.5039062,114.8500977,60.4072266,115.1918945,60.2158203z M120.6313477,61.5273438c-0.5117188-0.6074219-0.7675781-1.4560547-0.7675781-2.5439453v-4.9599609h2.0957031 v4.7041016c0,0.5546875,0.1337891,0.9892578,0.4003906,1.3037109c0.2666016,0.3154297,0.6181641,0.4726562,1.0556641,0.4726562 c0.5976562,0,1.0722656-0.21875,1.4238281-0.65625c0.3525391-0.4375,0.5283203-0.9921875,0.5283203-1.6640625v-4.1601562h2.0957031 v8.1601562h-1.9677734v-1.0244141h-0.1279297c-0.2451172,0.3955078-0.5898438,0.7070312-1.0322266,0.9365234 s-0.9306641,0.34375-1.4638672,0.34375C121.8901367,62.4394531,121.144043,62.1357422,120.6313477,61.5273438z M129.4477539,54.0234375h1.9677734v0.9921875h0.1279297 c0.2246094-0.3515625,0.5498047-0.6484375,0.9765625-0.8876953c0.4267578-0.2402344,0.9169922-0.3603516,1.4716797-0.3603516 c0.7363281,0,1.4052734,0.1835938,2.0078125,0.5517578s1.0751953,0.8828125,1.4160156,1.5439453 c0.3417969,0.6621094,0.5126953,1.4082031,0.5126953,2.2402344c0,0.8427734-0.1708984,1.5917969-0.5126953,2.2480469 c-0.3408203,0.65625-0.8134766,1.1679688-1.4160156,1.5361328s-1.2714844,0.5517578-2.0078125,0.5517578 c-0.5546875,0-1.0478516-0.1171875-1.4794922-0.3515625c-0.4326172-0.234375-0.7548828-0.5283203-0.96875-0.8798828h-0.1279297 l0.1279297,1.1513672v3.2802734h-2.0957031V54.0234375z M134.7280273,60.1992188 c0.3408203-0.2021484,0.6132812-0.4853516,0.8154297-0.8476562c0.203125-0.3623047,0.3046875-0.7783203,0.3046875-1.2480469 c0-0.46875-0.1015625-0.8847656-0.3046875-1.2480469c-0.2021484-0.3623047-0.4746094-0.6425781-0.8154297-0.8398438 c-0.3417969-0.1972656-0.7099609-0.2958984-1.1044922-0.2958984c-0.3837891,0-0.7460938,0.0986328-1.0878906,0.2958984 s-0.6132812,0.4775391-0.8154297,0.8398438c-0.203125,0.3632812-0.3046875,0.7792969-0.3046875,1.2480469 c0,0.4697266,0.1015625,0.8857422,0.3046875,1.2480469c0.2021484,0.3623047,0.4736328,0.6455078,0.8154297,0.8476562 c0.3417969,0.203125,0.7041016,0.3046875,1.0878906,0.3046875 C134.0180664,60.5039062,134.3862305,60.4023438,134.7280273,60.1992188z" />
    </g>
</svg>
