<?xml version="1.0" encoding="utf-8"?>
<!-- Generator: Adobe Illustrator 27.5.0, SVG Export Plug-In . SVG Version: 6.00 Build 0)  -->
<svg xmlns="http://www.w3.org/2000/svg"
    version="1.1"
    viewBox="0 0 192 96">
    <rect id="AdjustmentLayer" fill="none" width="192" height="96" />
    <g fill="#E30B5C">
        <path fill-opacity="0.25" d="M174.2400055,91.1999969H17.7600002c-7.1576109,0-12.96-5.8023834-12.96-12.9599991V17.7600002 c0-7.1576109,5.8023891-12.96,12.96-12.96h156.480011c7.157608,0,12.9599915,5.8023891,12.9599915,12.96v60.4799957 C187.1999969,85.3976135,181.3976135,91.1999969,174.2400055,91.1999969z" />
        <path d="M70.4761429,61.7348862L52.6334877,43.892231c1.8274994-4.5982208,0.8842735-10.021759-2.8296738-13.7553539 c-4.5196152-4.5196152-11.554493-4.9322758-16.5653725-1.2772827l7.5457916,7.565443l-2.7903709,2.7707214L30.46772,31.6696167 c-3.6549931,4.9912262-3.2423325,12.0457573,1.2772827,16.545723c3.654995,3.6549911,8.9802818,4.6178665,13.539196,2.9082756 l17.9016075,17.9016075c0.7663689,0.7663727,2.0043488,0.7663727,2.7707214,0l4.5196152-4.5196152 C71.2621613,63.7588921,71.2621613,62.5209084,70.4761429,61.7348862z M64.5809937,64.8789673L45.9916191,46.2895927 c-1.1986809,0.8842697-2.5349159,1.4148369-3.9300995,1.6113396c-2.6724701,0.3930092-5.4824905-0.4126625-7.5261459-2.4563141 c-1.8667984-1.8471451-2.7314186-4.3231087-2.5938663-6.7597694l6.0720043,6.0720024l8.3318138-8.33181l-6.0720062-6.0720062 c2.4366646-0.1375542,4.8929749,0.7270679,6.7597733,2.5742149c2.1222572,2.1222534,2.9279251,5.0501785,2.4366646,7.781601 c-0.2358055,1.3951836-0.8253212,2.6921196-1.7292442,3.8514977l18.5697212,18.569725L64.5809937,64.8789673z" />
        <path d="M94.0488281,31.5273438h4.0322266c0.7250977,0,1.3862305,0.1523438,1.9838867,0.4560547 c0.597168,0.3037109,1.0664062,0.7304688,1.4077148,1.2802734c0.3413086,0.5488281,0.512207,1.1757812,0.512207,1.8798828 s-0.1708984,1.3330078-0.512207,1.8876953s-0.8105469,0.984375-1.4077148,1.2880859 c-0.5976562,0.3037109-1.2587891,0.4560547-1.9838867,0.4560547h-1.8720703v4.2080078h-2.1601562V31.5273438z M98.1450195,36.7275391c0.5332031,0,0.9516602-0.1542969,1.2558594-0.4638672 c0.3037109-0.3095703,0.4560547-0.6826172,0.4560547-1.1201172s-0.1523438-0.8085938-0.4560547-1.1123047 c-0.3041992-0.3037109-0.7226562-0.4560547-1.2558594-0.4560547h-1.9360352v3.1523438H98.1450195z M104.6088867,42.671875c-0.6611328-0.3789062-1.1757812-0.8964844-1.5439453-1.5527344 c-0.3681641-0.6552734-0.5517578-1.3945312-0.5517578-2.2158203c0-0.8105469,0.1835938-1.546875,0.5517578-2.2080078 s0.8828125-1.1816406,1.5439453-1.5595703c0.6611328-0.3789062,1.4135742-0.5683594,2.2563477-0.5683594 c0.831543,0,1.578125,0.1894531,2.2397461,0.5683594c0.6611328,0.3779297,1.1762695,0.8984375,1.5439453,1.5595703 c0.3681641,0.6611328,0.5522461,1.3974609,0.5522461,2.2080078c0,0.8212891-0.184082,1.5605469-0.5522461,2.2158203 c-0.3676758,0.65625-0.8828125,1.1738281-1.5439453,1.5527344c-0.6616211,0.3779297-1.4082031,0.5673828-2.2397461,0.5673828 C106.0224609,43.2392578,105.2700195,43.0498047,104.6088867,42.671875z M107.9848633,41.015625 c0.3413086-0.1923828,0.6132812-0.4697266,0.815918-0.8320312s0.3041992-0.7890625,0.3041992-1.2802734 c0-0.4794922-0.1015625-0.9013672-0.3041992-1.2636719s-0.4746094-0.640625-0.815918-0.8320312 c-0.3413086-0.1923828-0.7148438-0.2880859-1.1196289-0.2880859c-0.4057617,0-0.7788086,0.0957031-1.1201172,0.2880859 c-0.3417969,0.1914062-0.6162109,0.4697266-0.8242188,0.8320312s-0.3120117,0.7841797-0.3120117,1.2636719 c0,0.4804688,0.1040039,0.9042969,0.3120117,1.2724609c0.2080078,0.3671875,0.4824219,0.6474609,0.8242188,0.8398438 c0.3413086,0.1914062,0.7143555,0.2880859,1.1201172,0.2880859 C107.2700195,41.3037109,107.6435547,41.2070312,107.9848633,41.015625z M113.4169922,42.6318359c-0.6137695-0.4052734-1.0429688-0.9335938-1.2880859-1.5839844l1.871582-0.8164062 c0.1708984,0.3837891,0.4130859,0.6748047,0.7285156,0.8720703c0.3144531,0.1972656,0.6796875,0.2958984,1.0957031,0.2958984 c0.3837891,0,0.7041016-0.0615234,0.9599609-0.1835938c0.2558594-0.1230469,0.3837891-0.3232422,0.3837891-0.6005859 c0-0.2666016-0.1171875-0.4667969-0.3515625-0.5996094c-0.2353516-0.1337891-0.5869141-0.2539062-1.0556641-0.3603516 l-0.9609375-0.2080078c-0.6611328-0.1601562-1.2109375-0.4501953-1.6474609-0.8720703 c-0.4375-0.4208984-0.65625-0.9462891-0.65625-1.5761719c0-0.46875,0.1416016-0.8896484,0.4243164-1.2636719 c0.2822266-0.3730469,0.6665039-0.6611328,1.1518555-0.8642578c0.4853516-0.2021484,1.0214844-0.3037109,1.6083984-0.3037109 c1.6845703,0,2.8105469,0.5917969,3.3759766,1.7763672l-1.7919922,0.7832031 c-0.3203125-0.5751953-0.8320312-0.8632812-1.5361328-0.8632812c-0.3632812,0-0.6513672,0.0664062-0.8642578,0.2001953 c-0.2138672,0.1328125-0.3203125,0.3007812-0.3203125,0.5039062c0,0.3837891,0.3632812,0.671875,1.0878906,0.8632812 l1.2001953,0.2880859c0.8105469,0.203125,1.421875,0.5126953,1.8320312,0.9287109 c0.4111328,0.4160156,0.6162109,0.9277344,0.6162109,1.5351562c0,0.5234375-0.1523438,0.984375-0.4560547,1.3847656 c-0.3037109,0.3994141-0.7197266,0.7119141-1.2480469,0.9355469s-1.1123047,0.3359375-1.7519531,0.3359375 C114.8325195,43.2392578,114.0297852,43.0371094,113.4169922,42.6318359z M123.152832,42.9277344c-0.3417969-0.1230469-0.6191406-0.2910156-0.8320312-0.5039062 c-0.5019531-0.4804688-0.7519531-1.1630859-0.7519531-2.0488281v-3.7597656h-1.4238281v-1.7919922h1.4238281v-2.3037109h2.0957031 v2.3037109h2v1.7919922h-2v3.3759766c0,0.4160156,0.0908203,0.7148438,0.2724609,0.8964844 c0.1494141,0.1708984,0.4052734,0.2558594,0.7675781,0.2558594c0.203125,0,0.3710938-0.0263672,0.5039062-0.0800781 c0.1337891-0.0537109,0.3066406-0.1445312,0.5205078-0.2724609v2.0488281 c-0.4589844,0.1806641-0.9443359,0.2714844-1.4560547,0.2714844 C123.8676758,43.1113281,123.4936523,43.0498047,123.152832,42.9277344z M95.4086914,61.8720703c-0.6611328-0.3789062-1.1757812-0.8964844-1.5439453-1.5527344 c-0.3681641-0.6552734-0.5517578-1.3945312-0.5517578-2.2158203c0-0.8105469,0.1835938-1.546875,0.5517578-2.2080078 s0.8828125-1.1816406,1.5439453-1.5595703c0.6611328-0.3789062,1.4135742-0.5683594,2.2563477-0.5683594 c0.831543,0,1.578125,0.1894531,2.2397461,0.5683594c0.6611328,0.3779297,1.1762695,0.8984375,1.5439453,1.5595703 c0.3681641,0.6611328,0.5522461,1.3974609,0.5522461,2.2080078c0,0.8212891-0.184082,1.5605469-0.5522461,2.2158203 c-0.3676758,0.65625-0.8828125,1.1738281-1.5439453,1.5527344C99.2431641,62.25,98.496582,62.4394531,97.6650391,62.4394531 C96.8222656,62.4394531,96.0698242,62.25,95.4086914,61.8720703z M98.784668,60.2158203 c0.3413086-0.1923828,0.6132812-0.4697266,0.815918-0.8320312s0.3041992-0.7890625,0.3041992-1.2802734 c0-0.4794922-0.1015625-0.9013672-0.3041992-1.2636719s-0.4746094-0.640625-0.815918-0.8320312 c-0.3413086-0.1923828-0.7148438-0.2880859-1.1196289-0.2880859c-0.4057617,0-0.7788086,0.0957031-1.1201172,0.2880859 c-0.3417969,0.1914062-0.6162109,0.4697266-0.8242188,0.8320312s-0.3120117,0.7841797-0.3120117,1.2636719 c0,0.4804688,0.1040039,0.9042969,0.3120117,1.2724609c0.2080078,0.3671875,0.4824219,0.6474609,0.8242188,0.8398438 c0.3413086,0.1914062,0.7143555,0.2880859,1.1201172,0.2880859C98.0698242,60.5039062,98.4433594,60.4072266,98.784668,60.2158203z M103.4404297,54.0234375h1.9682617v1.0244141h0.1279297 c0.2451172-0.3945312,0.5917969-0.7070312,1.0400391-0.9365234c0.4477539-0.2285156,0.9331055-0.34375,1.4560547-0.34375 c0.980957,0,1.7280273,0.2988281,2.2397461,0.8964844c0.512207,0.5966797,0.7680664,1.4130859,0.7680664,2.4472656v5.0722656 h-2.0961914v-4.8164062c0-0.5224609-0.1333008-0.9277344-0.3999023-1.2158203s-0.6401367-0.4316406-1.1201172-0.4316406 c-0.5654297,0-1.0214844,0.21875-1.3676758,0.65625c-0.3466797,0.4375-0.5200195,0.9863281-0.5200195,1.6474609v4.1601562 h-2.0961914V54.0234375z M121.5209961,60.1679688h-5.0400391v-1.6962891l4.8632812-7.2324219h2.2724609v6.9765625h1.3603516v1.9521484 h-1.3603516v2.015625h-2.0957031V60.1679688z M121.5209961,58.2158203V54.359375h-0.1279297l-2.5927734,3.8564453H121.5209961z M127.0717773,50.7275391h4.0322266c0.7255859,0,1.3867188,0.1523438,1.984375,0.4560547 c0.5966797,0.3037109,1.0664062,0.7304688,1.4082031,1.2802734c0.3408203,0.5488281,0.5117188,1.1757812,0.5117188,1.8798828 s-0.1708984,1.3330078-0.5117188,1.8876953c-0.3417969,0.5546875-0.8115234,0.984375-1.4082031,1.2880859 c-0.5976562,0.3037109-1.2587891,0.4560547-1.984375,0.4560547h-1.8720703v4.2080078h-2.1601562V50.7275391z M131.168457,55.9277344c0.5332031,0,0.9521484-0.1542969,1.2558594-0.4638672s0.4560547-0.6826172,0.4560547-1.1201172 s-0.1523438-0.8085938-0.4560547-1.1123047s-0.7226562-0.4560547-1.2558594-0.4560547h-1.9365234v3.1523438H131.168457z M136.831543,50.7275391h3.8720703c1.1953125,0,2.2353516,0.2402344,3.1201172,0.7197266 c0.8857422,0.4804688,1.5683594,1.1523438,2.0478516,2.0166016c0.4804688,0.8632812,0.7207031,1.8613281,0.7207031,2.9921875 c0,1.1298828-0.2402344,2.1279297-0.7207031,2.9912109c-0.4794922,0.8642578-1.1621094,1.5361328-2.0478516,2.0166016 c-0.8847656,0.4794922-1.9248047,0.7197266-3.1201172,0.7197266h-3.8720703V50.7275391z M140.6079102,60.1357422 c1.2373047,0,2.1816406-0.328125,2.8320312-0.984375s0.9765625-1.5546875,0.9765625-2.6953125 c0-1.1416016-0.3261719-2.0400391-0.9765625-2.6962891s-1.5947266-0.984375-2.8320312-0.984375h-1.6162109v7.3603516H140.6079102z M151.3769531,50.7275391h2.4794922l4.3037109,11.4560547h-2.3837891l-0.9599609-2.7363281h-4.3842773 l-0.9599609,2.7363281h-2.3837891L151.3769531,50.7275391z M154.1123047,57.4638672l-1.0078125-2.8798828l-0.4160156-1.3759766 h-0.1279297l-0.4160156,1.3759766l-1.0234375,2.8798828H154.1123047z" />
    </g>
</svg>
