<?xml version="1.0" encoding="utf-8"?>
<!-- Generator: Adobe Illustrator 27.5.0, SVG Export Plug-In . SVG Version: 6.00 Build 0)  -->
<svg xmlns="http://www.w3.org/2000/svg"
    version="1.1"
    viewBox="0 0 192 96">
    <rect id="AdjustmentLayer" fill="none" width="192" height="96" />
    <g fill="#4474C4">
        <path fill-opacity="0.25" d="M174.2400055,91.1999969H17.7600002c-7.1576109,0-12.96-5.8023834-12.96-12.9599991V17.7600002 c0-7.1576109,5.8023891-12.96,12.96-12.96h156.480011c7.157608,0,12.9599915,5.8023891,12.9599915,12.96v60.4799957 C187.1999969,85.3976135,181.3976135,91.1999969,174.2400055,91.1999969z" />
        <path d="M65.5675201,30.3345718c0,11.7769775,0,23.5539742,0,35.3308563c-4.078495,0-8.1569939,0-12.2354889,0 c-0.0275269-2.2226181-0.0550537-4.4453468-0.0825806-6.6680565c-7.1022568,0-14.2044945,0-21.3067513,0 c0-3.5067482,0-7.0136108,0-10.5203743c5.3319855-6.0475006,10.6640701-12.0949249,15.9961395-18.1424255 C53.8150368,30.3345718,59.6913261,30.3345718,65.5675201,30.3345718 M44.1415749,50.7424774c2.9900818,0,5.9801636,0,8.9703293,0 c0-3.335537,0-6.6711884,0-10.0067253C50.1217384,44.0712891,47.1316566,47.4069405,44.1415749,50.7424774 M65.5675201,26.3999996 H47.938839c-1.1293983,0-2.2043228,0.4853172-2.9512482,1.3324547l-5.46978,6.2036648L28.9914322,45.8749123 c-0.6336746,0.7186966-0.9833069,1.6439285-0.9833069,2.6020851v10.5203743c0,2.173008,1.7615643,3.9345741,3.9345741,3.9345741 H49.363308l0.0344543,2.7822037c0.0266762,2.1538391,1.7802734,3.885849,3.934269,3.885849h12.2354889 c2.1730118,0,3.9345779-1.7615662,3.9345779-3.9345703V30.3345718 C69.5020981,28.1615639,67.7405319,26.3999996,65.5675201,26.3999996L65.5675201,26.3999996z" />
        <path d="M95.5869141,33.5751953h-3.199707v-2.0478516h8.5600586v2.0478516h-3.2001953v9.4082031h-2.1601562V33.5751953z M102.7548828,42.671875c-0.6611328-0.3789062-1.1757812-0.8964844-1.5439453-1.5527344 c-0.3681641-0.6552734-0.5517578-1.3945312-0.5517578-2.2158203c0-0.8105469,0.1835938-1.546875,0.5517578-2.2080078 s0.8828125-1.1816406,1.5439453-1.5595703c0.6611328-0.3789062,1.4135742-0.5683594,2.2563477-0.5683594 c0.831543,0,1.578125,0.1894531,2.2397461,0.5683594c0.6611328,0.3779297,1.1762695,0.8984375,1.5439453,1.5595703 c0.3681641,0.6611328,0.5522461,1.3974609,0.5522461,2.2080078c0,0.8212891-0.184082,1.5605469-0.5522461,2.2158203 c-0.3676758,0.65625-0.8828125,1.1738281-1.5439453,1.5527344c-0.6616211,0.3779297-1.4082031,0.5673828-2.2397461,0.5673828 C104.168457,43.2392578,103.4160156,43.0498047,102.7548828,42.671875z M106.1308594,41.015625 c0.3413086-0.1923828,0.6132812-0.4697266,0.815918-0.8320312s0.3041992-0.7890625,0.3041992-1.2802734 c0-0.4794922-0.1015625-0.9013672-0.3041992-1.2636719s-0.4746094-0.640625-0.815918-0.8320312 c-0.3413086-0.1923828-0.7148438-0.2880859-1.1196289-0.2880859c-0.4057617,0-0.7788086,0.0957031-1.1201172,0.2880859 c-0.3417969,0.1914062-0.6162109,0.4697266-0.8242188,0.8320312s-0.3120117,0.7841797-0.3120117,1.2636719 c0,0.4804688,0.1040039,0.9042969,0.3120117,1.2724609c0.2080078,0.3671875,0.4824219,0.6474609,0.8242188,0.8398438 c0.3413086,0.1914062,0.7143555,0.2880859,1.1201172,0.2880859 C105.4160156,41.3037109,105.7895508,41.2070312,106.1308594,41.015625z M110.8032227,34.8232422h1.9682617v0.9921875h0.1279297 c0.2246094-0.3515625,0.5488281-0.6484375,0.9765625-0.8876953c0.4257812-0.2402344,0.9160156-0.3603516,1.4707031-0.3603516 c0.7363281,0,1.40625,0.1835938,2.0078125,0.5517578c0.6035156,0.3681641,1.0761719,0.8828125,1.4160156,1.5439453 c0.3417969,0.6621094,0.5136719,1.4082031,0.5136719,2.2402344c0,0.8427734-0.171875,1.5917969-0.5136719,2.2480469 c-0.3398438,0.65625-0.8125,1.1679688-1.4160156,1.5361328c-0.6015625,0.3681641-1.2714844,0.5517578-2.0078125,0.5517578 c-0.5546875,0-1.046875-0.1171875-1.4785156-0.3515625c-0.4335938-0.234375-0.7558594-0.5283203-0.96875-0.8798828h-0.1279297 l0.1279297,1.1513672v3.2802734h-2.0961914V34.8232422z M116.0830078,40.9990234 c0.3417969-0.2021484,0.6132812-0.4853516,0.8164062-0.8476562s0.3046875-0.7783203,0.3046875-1.2480469 c0-0.46875-0.1015625-0.8847656-0.3046875-1.2480469c-0.203125-0.3623047-0.4746094-0.6425781-0.8164062-0.8398438 s-0.7089844-0.2958984-1.1035156-0.2958984c-0.3847656,0-0.7460938,0.0986328-1.0878906,0.2958984 s-0.6132812,0.4775391-0.8164062,0.8398438c-0.203125,0.3632812-0.3037109,0.7792969-0.3037109,1.2480469 c0,0.4697266,0.1005859,0.8857422,0.3037109,1.2480469s0.4746094,0.6455078,0.8164062,0.8476562 c0.3417969,0.203125,0.703125,0.3046875,1.0878906,0.3046875 C115.3740234,41.3037109,115.7412109,41.2021484,116.0830078,40.9990234z M121.0439453,33.5273438c-0.2666016-0.2666016-0.4003906-0.5869141-0.4003906-0.9599609 s0.1337891-0.6904297,0.4003906-0.9521484c0.2666016-0.2607422,0.5869141-0.3916016,0.9599609-0.3916016 s0.6904297,0.1308594,0.9521484,0.3916016c0.2607422,0.2617188,0.3916016,0.5791016,0.3916016,0.9521484 s-0.1308594,0.6933594-0.3916016,0.9599609c-0.2617188,0.2666016-0.5791016,0.4003906-0.9521484,0.4003906 S121.3105469,33.7939453,121.0439453,33.5273438z M120.9482422,34.8232422h2.0957031v8.1601562h-2.0957031V34.8232422z M126.7880859,42.6875c-0.6513672-0.3681641-1.1601562-0.8828125-1.5283203-1.5439453 s-0.5517578-1.4082031-0.5517578-2.2402344s0.1835938-1.5761719,0.5517578-2.2314453 c0.3681641-0.65625,0.8769531-1.1708984,1.5283203-1.5449219c0.6503906-0.3730469,1.3867188-0.5595703,2.2080078-0.5595703 c0.90625,0,1.6845703,0.1943359,2.3359375,0.5839844c0.6503906,0.3896484,1.1201172,0.9414062,1.4082031,1.65625 l-1.9199219,0.7998047c-0.3417969-0.7255859-0.9501953-1.0878906-1.8242188-1.0878906 c-0.640625,0-1.1660156,0.21875-1.5761719,0.65625c-0.4111328,0.4375-0.6162109,1.0126953-0.6162109,1.7275391 c0,0.7255859,0.2050781,1.3066406,0.6162109,1.7441406c0.4101562,0.4375,0.9355469,0.65625,1.5761719,0.65625 c0.8847656,0,1.5253906-0.3847656,1.9199219-1.1523438l1.9042969,0.8320312 c-0.3525391,0.7148438-0.8535156,1.2695312-1.5048828,1.6640625c-0.6503906,0.3945312-1.4238281,0.5917969-2.3193359,0.5917969 C128.1748047,43.2392578,127.4384766,43.0556641,126.7880859,42.6875z M94.6269531,61.8720703c-0.6611328-0.3789062-1.1757812-0.8964844-1.5439453-1.5527344 c-0.3681641-0.6552734-0.5517578-1.3945312-0.5517578-2.2158203c0-0.8105469,0.1835938-1.546875,0.5517578-2.2080078 s0.8828125-1.1816406,1.5439453-1.5595703c0.6611328-0.3789062,1.4135742-0.5683594,2.2563477-0.5683594 c0.831543,0,1.578125,0.1894531,2.2397461,0.5683594c0.6611328,0.3779297,1.1762695,0.8984375,1.5439453,1.5595703 c0.3681641,0.6611328,0.5522461,1.3974609,0.5522461,2.2080078c0,0.8212891-0.184082,1.5605469-0.5522461,2.2158203 c-0.3676758,0.65625-0.8828125,1.1738281-1.5439453,1.5527344c-0.6616211,0.3779297-1.4082031,0.5673828-2.2397461,0.5673828 C96.0405273,62.4394531,95.2880859,62.25,94.6269531,61.8720703z M98.0029297,60.2158203 c0.3413086-0.1923828,0.6132812-0.4697266,0.815918-0.8320312s0.3041992-0.7890625,0.3041992-1.2802734 c0-0.4794922-0.1015625-0.9013672-0.3041992-1.2636719s-0.4746094-0.640625-0.815918-0.8320312 c-0.3413086-0.1923828-0.7148438-0.2880859-1.1196289-0.2880859c-0.4057617,0-0.7788086,0.0957031-1.1201172,0.2880859 c-0.3417969,0.1914062-0.6162109,0.4697266-0.8242188,0.8320312s-0.3120117,0.7841797-0.3120117,1.2636719 c0,0.4804688,0.1040039,0.9042969,0.3120117,1.2724609c0.2080078,0.3671875,0.4824219,0.6474609,0.8242188,0.8398438 c0.3413086,0.1914062,0.7143555,0.2880859,1.1201172,0.2880859C97.2880859,60.5039062,97.6616211,60.4072266,98.0029297,60.2158203z M102.6586914,54.0234375h1.9682617v1.0244141h0.1279297 c0.2451172-0.3945312,0.5917969-0.7070312,1.0400391-0.9365234c0.4477539-0.2285156,0.9331055-0.34375,1.4560547-0.34375 c0.980957,0,1.7280273,0.2988281,2.2397461,0.8964844c0.512207,0.5966797,0.7680664,1.4130859,0.7680664,2.4472656v5.0722656 h-2.0961914v-4.8164062c0-0.5224609-0.1333008-0.9277344-0.3999023-1.2158203s-0.6401367-0.4316406-1.1201172-0.4316406 c-0.5654297,0-1.0214844,0.21875-1.3676758,0.65625c-0.3466797,0.4375-0.5200195,0.9863281-0.5200195,1.6474609v4.1601562 h-2.0961914V54.0234375z M120.7392578,60.1679688h-5.0400391v-1.6962891l4.8632812-7.2324219h2.2724609v6.9765625h1.3603516v1.9521484 h-1.3603516v2.015625h-2.0957031V60.1679688z M120.7392578,58.2158203V54.359375h-0.1279297l-2.5927734,3.8564453H120.7392578z M126.2900391,50.7275391h4.0322266c0.7255859,0,1.3867188,0.1523438,1.984375,0.4560547 c0.5966797,0.3037109,1.0664062,0.7304688,1.4082031,1.2802734c0.3408203,0.5488281,0.5117188,1.1757812,0.5117188,1.8798828 s-0.1708984,1.3330078-0.5117188,1.8876953c-0.3417969,0.5546875-0.8115234,0.984375-1.4082031,1.2880859 c-0.5976562,0.3037109-1.2587891,0.4560547-1.984375,0.4560547h-1.8720703v4.2080078h-2.1601562V50.7275391z M130.3867188,55.9277344c0.5332031,0,0.9521484-0.1542969,1.2558594-0.4638672s0.4560547-0.6826172,0.4560547-1.1201172 s-0.1523438-0.8085938-0.4560547-1.1123047s-0.7226562-0.4560547-1.2558594-0.4560547h-1.9365234v3.1523438H130.3867188z M136.0498047,50.7275391h3.8720703c1.1953125,0,2.2353516,0.2402344,3.1201172,0.7197266 c0.8857422,0.4804688,1.5683594,1.1523438,2.0478516,2.0166016c0.4804688,0.8632812,0.7207031,1.8613281,0.7207031,2.9921875 c0,1.1298828-0.2402344,2.1279297-0.7207031,2.9912109c-0.4794922,0.8642578-1.1621094,1.5361328-2.0478516,2.0166016 c-0.8847656,0.4794922-1.9248047,0.7197266-3.1201172,0.7197266h-3.8720703V50.7275391z M139.8261719,60.1357422 c1.2373047,0,2.1816406-0.328125,2.8320312-0.984375s0.9765625-1.5546875,0.9765625-2.6953125 c0-1.1416016-0.3261719-2.0400391-0.9765625-2.6962891s-1.5947266-0.984375-2.8320312-0.984375h-1.6162109v7.3603516H139.8261719z M150.5947266,50.7275391h2.4794922l4.3037109,11.4560547h-2.3837891l-0.9599609-2.7363281h-4.3837891 l-0.9599609,2.7363281h-2.3837891L150.5947266,50.7275391z M153.3300781,57.4638672l-1.0078125-2.8798828l-0.4160156-1.3759766 h-0.1279297l-0.4160156,1.3759766l-1.0234375,2.8798828H153.3300781z" />
    </g>
</svg>
