<?xml version="1.0" encoding="utf-8"?>
<!-- Generator: Adobe Illustrator 27.5.0, SVG Export Plug-In . SVG Version: 6.00 Build 0)  -->
<svg xmlns="http://www.w3.org/2000/svg"
    version="1.1"
    viewBox="0 0 1920 480">
    <rect id="Adjustment_layer" fill="none" width="1920" height="480" />
    <g>
        <path fill="#FFFFFF" d="M1017.5292969,289.4101562c-6.847168,0-13.1328125-1.6132812-18.6821289-4.7958984 c-5.5722656-3.1933594-9.9956055-7.6640625-13.1474609-13.2861328c-3.128418-5.5664062-4.7158203-11.8994141-4.7158203-18.8203125 c0-3.6904297,0.4897461-7.2607422,1.4619141-10.6806641l-1.7963867-0.6611328 c-2.0185547-0.7431641-3.6962891-1.2792969-4.9858398-1.59375c-1.1425781-0.2783203-2.3867188-0.4199219-3.6977539-0.4199219 c-3.3071289,0-5.7241211,1.0830078-7.6069336,3.4082031c-2.0854492,2.5761719-3.0991211,5.8300781-3.0991211,9.9472656v34.9794922 h-24.6357422v-70.2070312h23.6767578v2.4853516c0.4379883-0.2929688,0.8901367-0.5761719,1.3554688-0.8496094 c3.8793945-2.2802734,8.1972656-3.4355469,12.8339844-3.4355469c3.3256836,0,6.4433594,0.5410156,9.265625,1.6074219 l2.8735352,1.0859375v14.15625c2.9912109-4.8642578,6.9697266-8.8496094,11.8486328-11.8623047 c5.5063477-3.3916016,11.7124023-5.109375,18.449707-5.109375c7.1113281,0,13.3779297,1.5869141,18.625,4.7158203 c5.2841797,3.1523438,9.3544922,7.5283203,12.0976562,13.0078125c2.6669922,5.3369141,4.0175781,11.3056641,4.0175781,17.7421875 c0,2.0341797-0.1367188,4.0244141-0.4072266,5.9169922l-0.5439453,3.8164062h-11.0341797l12.5527344,6.1582031l-2.359375,4.1132812 C1042.8027344,283.1582031,1031.9199219,289.4101562,1017.5292969,289.4101562z M1016.9277344,224.2470703 c-5.1381836,0-9.6469727,1.2382812-13.7836914,3.7861328c-4.175293,2.5791016-7.3583984,5.9511719-9.7260742,10.3066406 c-2.3530273,4.3251953-3.5454102,9.0908203-3.5454102,14.1679688c0,5.4521484,1.1704102,10.1855469,3.5786133,14.4697266 c2.3901367,4.2636719,5.6005859,7.5087891,9.8168945,9.9248047l0.0009766,0.0009766 c4.2451172,2.4345703,8.909668,3.6181641,14.2602539,3.6181641c9.4472656,0,16.6826172-3.328125,21.9863281-10.1445312 l-4.8144531-2.3623047c-1.515625,1.7587891-3.2998047,3.2558594-5.3359375,4.4746094 c-3.2773438,1.9716797-7.1816406,2.9736328-11.5957031,2.9736328c-5.3623047,0-10.0522461-1.6113281-13.9384766-4.7900391 c-3.934082-3.2177734-6.4248047-7.8740234-7.4033203-13.8398438l-0.847168-5.1640625h47.1889648 c0.0068359-0.2802734,0.0097656-0.5615234,0.0097656-0.8447266c0-5.0458984-1.0361328-9.6767578-3.078125-13.765625 c-1.9980469-3.9902344-4.8447266-7.0498047-8.7011719-9.3496094 C1027.1484375,225.4121094,1022.4140625,224.2470703,1016.9277344,224.2470703z M945.5126953,278.5986328h6.8583984v-26.0908203 c0-6.1474609,1.7089844-11.3759766,5.0791016-15.5400391c3.5517578-4.3867188,8.5708008-6.7041016,14.515625-6.7041016 c2.0087891,0,3.9516602,0.2236328,5.7749023,0.6660156v-6.296875c-1.0307617-0.1748047-2.1166992-0.2636719-3.2504883-0.2636719 c-3.074707,0-5.7998047,0.7226562-8.3300781,2.2099609c-2.503418,1.4716797-4.2749023,3.2363281-5.4145508,5.3955078 l-1.2509766,2.3691406h-8.0825195v-8.1748047h-5.8994141V278.5986328z M1006.8378906,260.5576172 c0.6894531,1.2949219,1.5600586,2.3671875,2.6206055,3.234375c2.2890625,1.8720703,5.0073242,2.7822266,8.3110352,2.7822266 c2.8164062,0,5.1132812-0.5585938,7.0224609-1.7070312c1.8359375-1.0986328,3.2724609-2.5097656,4.3876953-4.3095703H1006.8378906z M897.6616211,289.4101562c-7.0805664,0-13.5253906-1.6318359-19.15625-4.8515625l-0.003418-0.0019531 c-5.6552734-3.2402344-10.1191406-7.7304688-13.2666016-13.3466797c-1.2016602-2.1396484-2.1757812-4.3925781-2.9204102-6.7480469 v20.5234375l-2.8115234,1.1103516c-3.9570312,1.5634766-8.1870117,2.3554688-12.5712891,2.3554688 c-3.5332031,0-6.8701172-0.5537109-9.9174805-1.6445312l-0.0009766-0.0009766 c-3.1733398-1.1376953-5.8295898-2.7617188-7.8950195-4.8271484c-4.5898438-4.3916016-6.9521484-10.6494141-6.9521484-18.5322266 v-23.8066406h-10.6987305v-22.359375h10.6987305v-17.3125h24.6411133v17.3125h15.027832v22.359375h-15.027832v20.9199219 c0,2.1035156,0.4003906,3.2509766,0.7431641,3.59375l0.2036133,0.2177734v-0.0009766 c0.0029297,0,0.5395508,0.4042969,2.4213867,0.4042969c1.2397461,0,1.8720703-0.1787109,2.1381836-0.2851562 c0.5322266-0.2128906,1.534668-0.6865234,3.2695312-1.7275391l5.5209961-3.3134766 c-0.3891602-2.2773438-0.5849609-4.6347656-0.5849609-7.0634766c0-6.8320312,1.5849609-13.140625,4.7104492-18.7509766 c3.1484375-5.6640625,7.6147461-10.1816406,13.2724609-13.421875c5.6313477-3.2207031,12.0766602-4.8535156,19.1591797-4.8535156 c7.0048828,0,13.4111328,1.6328125,19.0400391,4.8515625c5.6572266,3.2402344,10.1240234,7.7568359,13.2802734,13.4248047 c3.1254883,5.6191406,4.7094727,11.9267578,4.7094727,18.75c0,6.9101562-1.5864258,13.2431641-4.7158203,18.8251953 c-3.1538086,5.6181641-7.6186523,10.1083984-13.2709961,13.3466797 C911.0703125,287.7783203,904.6645508,289.4101562,897.6616211,289.4101562z M882.9174805,276.8417969 c4.2700195,2.4414062,9.230957,3.6796875,14.7441406,3.6796875c5.4360352,0,10.3574219-1.2382812,14.6274414-3.6796875 c4.2954102-2.4609375,7.5458984-5.7255859,9.934082-9.9804688c2.4082031-4.2958984,3.5795898-9.03125,3.5795898-14.4765625 c0-5.2929688-1.2075195-10.1464844-3.5883789-14.4277344c-2.3896484-4.2929688-5.6376953-7.5751953-9.9282227-10.0322266 c-4.2661133-2.4394531-9.1870117-3.6777344-14.6245117-3.6777344c-5.5146484,0-10.4750977,1.2382812-14.7436523,3.6796875 c-4.2895508,2.4560547-7.5351562,5.7373047-9.9208984,10.0292969c-2.4155273,4.3359375-3.5888672,9.0546875-3.5888672,14.4287109 c0,5.4511719,1.1708984,10.1865234,3.5795898,14.4765625C875.371582,271.1152344,878.6191406,274.3789062,882.9174805,276.8417969 L882.9174805,276.8417969z M840.0117188,278.4384766c2.0834961,0.7460938,4.4116211,1.1240234,6.9204102,1.1240234 c2.2353516,0,4.409668-0.2744141,6.4941406-0.8173828v-5.3681641c-0.9916992,0.1923828-2.0693359,0.2861328-3.2504883,0.2861328 c-3.9829102,0-7.0146484-1.1201172-9.0131836-3.3291016c-2.1523438-2.2197266-3.2436523-5.5078125-3.2436523-9.7744141v-29.8085938 h15.027832v-4.5820312h-15.027832v-17.3125h-6.8637695v17.3125h-10.6987305v4.5820312h10.6987305v32.6953125 c0,5.4384766,1.3999023,9.4228516,4.2792969,12.1787109C836.5341797,276.8232422,838.0844727,277.7470703,840.0117188,278.4384766 L840.0117188,278.4384766z M780.5678711,289.4101562c-8.4663086,0-16.0673828-2.4335938-22.5922852-7.2333984l-0.0024414-0.0019531 c-6.5400391-4.8173828-11.1713867-11.6611328-13.7646484-20.3427734l-1.1689453-3.9121094l23.7197266-9.3398438l1.2734375,4.8359375 c0.9833984,3.7333984,2.6269531,6.7099609,4.8857422,8.8466797c2.043457,1.9287109,4.5849609,2.8681641,7.7670898,2.8681641 c2.6958008,0,4.8901367-0.6201172,6.7089844-1.8945312c1.3662109-0.9619141,1.9521484-2.1220703,1.9521484-3.875 c0-1.8886719-0.6401367-3.2666016-2.0751953-4.4667969c-1.4038086-1.1728516-4.5805664-3.1318359-11.7431641-5.7998047 l-5.2543945-1.9101562c-6.0991211-2.1191406-11.4448242-5.453125-15.8300781-9.890625 c-4.7617188-4.8085938-7.1777344-10.8974609-7.1777344-18.09375c0-5.3154297,1.4033203-10.2382812,4.171875-14.6328125 c2.7543945-4.3662109,6.6669922-7.8369141,11.6298828-10.3193359c4.8618164-2.4277344,10.3837891-3.6582031,16.4140625-3.6582031 c8.7856445,0,15.918457,2.1767578,21.2011719,6.4697266c5.1191406,4.1591797,8.7045898,9.1396484,10.6552734,14.8037109 l1.3544922,3.9335938l-22.5683594,9.4824219l-1.5146484-4.5527344c-0.6157227-1.8525391-1.6694336-3.3671875-3.2197266-4.6318359 c-1.4033203-1.1494141-3.2539062-1.7050781-5.6635742-1.7050781c-2.5966797,0-4.5991211,0.5322266-6.121582,1.6279297 c-1.3891602,1-1.5810547,1.9472656-1.5810547,2.8212891c0,0.8720703,0.1962891,1.9277344,1.6523438,3.1425781 c1.1894531,0.9912109,3.7685547,2.5673828,9.2758789,4.4316406l5.3920898,1.7998047 c8.1450195,2.8027344,14.5102539,6.6083984,18.9580078,11.3251953c4.7539062,5.0410156,7.1645508,11.6279297,7.1645508,19.578125 c0,6.5595703-1.7509766,12.2451172-5.2050781,16.8994141c-3.3466797,4.5097656-7.7041016,7.9257812-12.9506836,10.1542969 C791.2592773,288.3193359,785.9614258,289.4101562,780.5678711,289.4101562z M763.2421875,275.0166016 c5.0361328,3.7041016,10.703125,5.5048828,17.3256836,5.5048828c4.190918,0,8.3173828-0.8515625,12.265625-2.5322266 c3.8271484-1.625,6.8652344-4.0029297,9.2905273-7.2705078c2.3242188-3.1328125,3.4541016-6.9277344,3.4541016-11.6025391 c0-5.6865234-1.5512695-10.0957031-4.7426758-13.4804688c-3.4501953-3.6582031-8.612793-6.6884766-15.3442383-9.0048828 l-5.3710938-1.7919922c-5.5566406-1.8808594-9.5205078-3.8515625-12.1362305-6.0302734 c-3.1733398-2.6484375-4.8486328-6.0947266-4.8486328-9.9697266c0-4.0800781,1.824707-7.5507812,5.277832-10.0361328 c3.0454102-2.1914062,6.8515625-3.3017578,11.3134766-3.3017578c4.4819336,0,8.2797852,1.2480469,11.2875977,3.7099609 c1.5732422,1.2832031,2.8969727,2.7509766,3.9599609,4.3896484l6.2412109-2.6230469 c-1.4770508-2.5644531-3.5073242-4.8828125-6.137207-7.0195312c-3.6582031-2.9726562-8.9052734-4.4794922-15.5961914-4.4794922 c-4.6396484,0-8.8251953,0.9160156-12.4404297,2.7207031c-3.5380859,1.7695312-6.1831055,4.0947266-8.0844727,7.1083984 c-1.8852539,2.9921875-2.8022461,6.2294922-2.8022461,9.8925781c0,4.8378906,1.5073242,8.7109375,4.6083984,11.8427734 c3.4243164,3.4648438,7.625,6.0771484,12.487793,7.7666016l5.347168,1.9433594 c6.8256836,2.5419922,11.5166016,4.9335938,14.3745117,7.3222656c3.4428711,2.8789062,5.2626953,6.78125,5.2626953,11.2861328 c0,4.6533203-1.9819336,8.5078125-5.730957,11.1474609c-3.324707,2.3310547-7.2988281,3.5107422-11.8188477,3.5107422 c-5.4819336,0-10.1494141-1.7822266-13.8720703-5.296875c-2.4042969-2.2744141-4.3310547-5.0683594-5.7578125-8.34375 l-6.9663086,2.7431641C756.1850586,268.1259766,759.2021484,272.0400391,763.2421875,275.0166016L763.2421875,275.0166016z M679.2211914,289.4101562c-7.6064453,0-13.9951172-2.3115234-18.9882812-6.8710938 c-5.109375-4.6650391-7.699707-10.8056641-7.699707-18.2519531c0-4.9931641,1.359375-9.4863281,4.0405273-13.3525391 c2.3071289-3.3359375,5.3876953-6.0166016,9.1704102-7.9824219l-9.1308594-7.1767578v7.5917969l-5.9794922-2.2011719 c-2.0205078-0.7441406-3.6982422-1.2802734-4.9863281-1.59375c-1.1425781-0.2783203-2.3867188-0.4199219-3.6977539-0.4199219 c-3.3071289,0-5.7241211,1.0830078-7.6069336,3.4082031c-2.0854492,2.5761719-3.0991211,5.8300781-3.0991211,9.9472656v34.9794922 h-24.6362305v-70.2070312h23.6772461v2.4853516c0.4379883-0.2929688,0.8901367-0.5761719,1.3554688-0.8496094 c3.8793945-2.2802734,8.1967773-3.4355469,12.8334961-3.4355469c3.3261719,0,6.4438477,0.5410156,9.2661133,1.6074219 l2.8735352,1.0859375v9.2929688c3.1577148-3.6162109,7.0092773-6.4941406,11.4750977-8.5683594 c5.0620117-2.3496094,10.6274414-3.5400391,16.543457-3.5400391c10.4541016,0,18.6445312,2.5595703,24.3442383,7.6083984 c5.8598633,5.1904297,8.8305664,12.7021484,8.8305664,22.3251953v42.1953125h-24.3959961v-1.8222656 c-0.5751953,0.34375-1.1694336,0.6708984-1.7817383,0.9814453 C688.0019531,288.4804688,683.8276367,289.4101562,679.2211914,289.4101562z M681.6235352,248.1757812 c-3.918457,0-7.515625,0.7197266-10.6914062,2.1376953c-3.0395508,1.3583984-5.3457031,3.2167969-7.0507812,5.6816406 c-1.6557617,2.3876953-2.4594727,5.0986328-2.4594727,8.2919922c0,4.9130859,1.5717773,8.7363281,4.8041992,11.6875 c3.3510742,3.0595703,7.6015625,4.546875,12.9951172,4.546875c3.199707,0,6.0239258-0.6083984,8.3945312-1.8066406 c2.1386719-1.0830078,3.8554688-2.390625,5.2241211-3.9824219c-2.8256836,1.6044922-6.1342773,2.4130859-9.890625,2.4130859 c-4.4008789,0-7.9438477-1.1660156-10.5307617-3.4658203c-2.7021484-2.3945312-4.1333008-5.6435547-4.1333008-9.3925781 c0-4.0839844,1.6274414-13.5820312,16.7036133-13.5820312c5.1210938,0,10.0854492,1.1132812,14.7563477,3.3076172 l2.5541992,1.2001953v2.8222656c0,5.0566406-1.7475586,9.5244141-5.1938477,13.28125l0,0 c-0.3300781,0.359375-0.6704102,0.703125-1.0214844,1.0302734h6.215332v6.2519531h6.6186523v-33.3066406 c0-7.0664062-1.9086914-12.1933594-5.8354492-15.6708984c-4.0253906-3.5664062-10.2333984-5.3740234-18.4506836-5.3740234 c-4.6142578,0-8.9208984,0.9130859-12.800293,2.7128906c-2.4746094,1.1503906-4.6420898,2.5791016-6.5478516,4.3242188 l3.2363281,2.5439453c1.512207-1.2675781,3.2060547-2.3652344,5.0678711-3.2822266 c3.2836914-1.6220703,6.7568359-2.4443359,10.3198242-2.4443359c5.2910156,0,9.6621094,1.3945312,12.9916992,4.1464844 c3.5322266,2.9160156,5.3999023,6.9277344,5.3999023,11.6005859v9.2753906l-6.1323242-2.5175781 C692.2382812,248.9941406,687.3452148,248.1757812,681.6235352,248.1757812z M615.4960938,278.5986328h6.8588867v-26.0908203 c0-6.1474609,1.7089844-11.3759766,5.0791016-15.5400391c3.5517578-4.3867188,8.5708008-6.7041016,14.515625-6.7041016 c2.0087891,0,3.9516602,0.2236328,5.7749023,0.6660156v-6.296875c-1.0307617-0.1748047-2.1171875-0.2636719-3.2509766-0.2636719 c-3.074707,0-5.7993164,0.7226562-8.3295898,2.2099609c-2.503418,1.4716797-4.2749023,3.2363281-5.4145508,5.3955078 l-1.2509766,2.3691406h-8.0825195v-8.1748047h-5.8999023V278.5986328z M684.9887695,259.59375 c-7.8149414,0-7.8149414,2.9384766-7.8149414,4.6933594c0,1.2128906,0.3422852,2.0332031,1.1450195,2.7451172 c1.1396484,1.0126953,3.1464844,1.2246094,4.6303711,1.2246094c3.2993164,0,5.7861328-0.9638672,7.6025391-2.9462891 l0.0029297-0.0029297c1.2338867-1.34375,2.0605469-2.8056641,2.4941406-4.4208984 C690.4506836,260.0185547,687.7905273,259.59375,684.9887695,259.59375z M681.6235352,239.2871094 c3.8540039,0,7.4399414,0.3261719,10.7280273,0.9746094c-0.3017578-0.4121094-0.6713867-0.7958984-1.112793-1.1601562 c-1.6953125-1.4013672-4.1616211-2.1113281-7.3310547-2.1113281c-2.2172852,0-4.3066406,0.5-6.3876953,1.5273438 c-0.7890625,0.3886719-1.5180664,0.8144531-2.1923828,1.28125 C677.3569336,239.4580078,679.4589844,239.2871094,681.6235352,239.2871094z M567.6503906,289.4101562 c-7.0810547,0-13.5258789-1.6318359-19.1567383-4.8515625l-0.003418-0.0019531 c-5.6547852-3.2402344-10.1181641-7.7304688-13.2661133-13.3466797c-3.128418-5.5703125-4.7158203-11.9052734-4.7158203-18.8251953 c0-3.6904297,0.4624023-7.2285156,1.3803711-10.5859375l-1.7192383-0.6328125 c-2.0195312-0.7431641-3.6972656-1.2802734-4.9868164-1.59375c-1.1420898-0.2783203-2.3862305-0.4199219-3.6972656-0.4199219 c-3.3071289,0-5.7241211,1.0830078-7.6069336,3.4082031c-2.0849609,2.5761719-3.0991211,5.8300781-3.0991211,9.9472656v34.9794922 h-24.6362305v-70.2070312h23.6772461v2.4853516c0.4379883-0.2929688,0.8901367-0.5761719,1.3554688-0.8496094 c3.8793945-2.2802734,8.1967773-3.4355469,12.8334961-3.4355469c3.3261719,0,6.4438477,0.5410156,9.2661133,1.6074219 l2.8735352,1.0859375v13.8808594c3.0756836-4.9306641,7.2207031-8.9101562,12.3417969-11.8427734 c5.6313477-3.2207031,12.0771484-4.8535156,19.159668-4.8535156c7.0048828,0,13.4111328,1.6328125,19.0400391,4.8515625 c5.6567383,3.2402344,10.1240234,7.7568359,13.2802734,13.4248047c3.1254883,5.6191406,4.7094727,11.9267578,4.7094727,18.75 c0,6.9101562-1.5864258,13.2431641-4.7158203,18.8251953c-3.1542969,5.6181641-7.6186523,10.1083984-13.2709961,13.3466797 C581.059082,287.7783203,574.6533203,289.4101562,567.6503906,289.4101562z M552.9057617,276.8417969 c4.2700195,2.4414062,9.230957,3.6796875,14.7446289,3.6796875c5.4360352,0,10.3574219-1.2382812,14.6274414-3.6796875 c4.2954102-2.4609375,7.5458984-5.7255859,9.934082-9.9804688c2.4082031-4.2958984,3.5795898-9.03125,3.5795898-14.4765625 c0-5.2929688-1.2070312-10.1464844-3.5883789-14.4277344c-2.3896484-4.2929688-5.6376953-7.5751953-9.9282227-10.0322266 c-4.2661133-2.4394531-9.1870117-3.6777344-14.6245117-3.6777344c-5.5151367,0-10.4755859,1.2382812-14.7441406,3.6796875 c-4.2890625,2.4560547-7.534668,5.7373047-9.9204102,10.0292969c-2.4155273,4.3349609-3.5888672,9.0537109-3.5888672,14.4287109 c0,5.4521484,1.1708984,10.1875,3.5791016,14.4765625C545.3608398,271.1152344,548.6079102,274.3789062,552.9057617,276.8417969 L552.9057617,276.8417969z M495.0317383,278.5986328h6.8588867v-26.0908203c0-6.1474609,1.7089844-11.3759766,5.0791016-15.5400391 c3.5517578-4.3867188,8.5708008-6.7041016,14.515625-6.7041016c2.0087891,0,3.9516602,0.2236328,5.7749023,0.6660156v-6.296875 c-1.0307617-0.1748047-2.1171875-0.2636719-3.2509766-0.2636719c-3.074707,0-5.7988281,0.7226562-8.3295898,2.2099609 c-2.5039062,1.4716797-4.2749023,3.2363281-5.4140625,5.3945312l-1.2509766,2.3701172h-8.0830078v-8.1748047h-5.8999023V278.5986328 z M440.6943359,289.4101562c-8.7080078,0-15.5151367-2.8378906-20.2314453-8.4335938l-0.0019531-0.0029297 c-4.5200195-5.3701172-6.8115234-12.7636719-6.8115234-21.9746094v-41.71875h24.6357422v39.7958984 c0,3.0644531,0.6572266,5.3964844,1.9536133,6.9296875c1.1557617,1.3613281,2.5576172,1.9716797,4.5405273,1.9716797 c3.1425781,0,5.4438477-1.0400391,7.2416992-3.2734375c2.0073242-2.4990234,2.9848633-5.6787109,2.9848633-9.7167969v-35.7070312 h24.6357422v70.2070312h-23.6767578v-2.4482422c-0.7099609,0.4589844-1.4511719,0.8896484-2.2236328,1.2900391 C449.7836914,288.3740234,445.3955078,289.4101562,440.6943359,289.4101562z M427.2597656,275.2480469 c2.9907227,3.5488281,7.3847656,5.2734375,13.4345703,5.2734375c3.3129883,0,6.2446289-0.6826172,8.9614258-2.0869141 c2.6206055-1.3583984,4.5913086-3.1367188,6.0205078-5.4345703l1.3041992-2.0966797h7.8730469v7.6953125h5.8994141v-52.4296875 h-6.8583984v26.8183594c0,6.0576172-1.6640625,11.2011719-4.9467773,15.2871094 c-3.4731445,4.3134766-8.3710938,6.5917969-14.168457,6.5917969c-4.5678711,0-8.4833984-1.7685547-11.3232422-5.1152344 c-2.6958008-3.1894531-4.0595703-7.4511719-4.0595703-12.6748047v-30.9072266h-6.8583984v32.8300781 C422.5380859,266.0566406,424.1269531,271.5234375,427.2597656,275.2480469L427.2597656,275.2480469z M418.4990234,287.4873047 h-27.4829102l-7.2104492-20.5556641h-26.6416016l-7.2158203,20.5556641h-27.46875l35.5458984-94.9697266h24.793457 L418.4990234,287.4873047z M397.3178711,278.5986328h8.3461914L376.6625977,201.40625h-12.4731445l-28.8916016,77.1923828h8.3505859 l7.2158203-20.5556641h39.2431641L397.3178711,278.5986328z M897.6616211,274.8662109 c-3.8027344,0-7.3671875-0.9208984-10.5947266-2.7382812c-3.265625-1.8388672-5.9165039-4.5283203-7.8793945-7.9931641 c-1.9389648-3.4355469-2.9204102-7.3867188-2.9204102-11.75c0-4.3691406,0.9858398-8.3066406,2.9306641-11.703125 c1.965332-3.4208984,4.6118164-6.0830078,7.8691406-7.9169922c3.2324219-1.8183594,6.796875-2.7402344,10.5947266-2.7402344 c3.7954102,0,7.3603516,0.9208984,10.5957031,2.7382812c3.28125,1.8476562,5.9155273,4.5253906,7.8334961,7.9599609 c1.8901367,3.3867188,2.8486328,7.3095703,2.8486328,11.6621094c0,4.4345703-0.9584961,8.4003906-2.8486328,11.7851562 c-1.9179688,3.4345703-4.5522461,6.1123047-7.8291016,7.9570312l-0.003418,0.0029297 C905.0268555,273.9453125,901.4614258,274.8662109,897.6616211,274.8662109z M897.6616211,238.9130859 c-2.2841797,0-4.3237305,0.5224609-6.2348633,1.5976562c-1.8691406,1.0527344-3.3476562,2.5556641-4.5185547,4.5927734 c-1.1782227,2.0576172-1.7524414,4.4414062-1.7524414,7.28125c0,2.8535156,0.5786133,5.265625,1.7695312,7.375 c1.1669922,2.0595703,2.640625,3.5742188,4.5029297,4.6220703c1.90625,1.0742188,3.9453125,1.5957031,6.2333984,1.5957031 c2.2866211,0,4.3271484-0.5214844,6.2387695-1.5957031l0,0c1.855957-1.0449219,3.3051758-2.5322266,4.4296875-4.5458984 c1.1416016-2.0449219,1.7207031-4.5517578,1.7207031-7.4511719c0-2.8574219-0.5629883-5.2539062-1.7211914-7.3291016 c-1.1240234-2.0126953-2.5732422-3.5-4.4291992-4.5458984C901.9882812,239.4365234,899.9458008,238.9130859,897.6616211,238.9130859 z M567.6503906,274.8662109c-3.8027344,0-7.3671875-0.9208984-10.5947266-2.7382812 c-3.2661133-1.8398438-5.9174805-4.5283203-7.8798828-7.9931641c-1.9389648-3.4355469-2.9204102-7.3867188-2.9204102-11.75 c0-4.3691406,0.9858398-8.3066406,2.9306641-11.703125c1.965332-3.4208984,4.6118164-6.0820312,7.8696289-7.9169922 c3.2324219-1.8183594,6.796875-2.7402344,10.5947266-2.7402344c3.7954102,0,7.3603516,0.9208984,10.5957031,2.7382812 c3.28125,1.8476562,5.9155273,4.5253906,7.8334961,7.9599609c1.8901367,3.3867188,2.8486328,7.3095703,2.8486328,11.6621094 c0,4.4345703-0.9584961,8.4003906-2.8486328,11.7851562c-1.9179688,3.4345703-4.5522461,6.1123047-7.8291016,7.9570312 l-0.003418,0.0029297C575.015625,273.9453125,571.4501953,274.8662109,567.6503906,274.8662109z M567.6503906,238.9130859 c-2.2841797,0-4.3237305,0.5224609-6.2348633,1.5976562c-1.8696289,1.0537109-3.3481445,2.5556641-4.519043,4.5927734 c-1.1782227,2.0576172-1.7524414,4.4414062-1.7524414,7.28125c0,2.8535156,0.5786133,5.265625,1.7695312,7.375 c1.1665039,2.0595703,2.640625,3.5742188,4.503418,4.6220703c1.90625,1.0742188,3.9453125,1.5957031,6.2333984,1.5957031 c2.2866211,0,4.3271484-0.5214844,6.2387695-1.5947266v-0.0009766c1.855957-1.0449219,3.3051758-2.5322266,4.4296875-4.5458984 c1.1416016-2.0449219,1.7207031-4.5517578,1.7207031-7.4511719c0-2.8574219-0.5629883-5.2539062-1.7211914-7.3291016 c-1.1240234-2.0126953-2.5732422-3.5-4.4291992-4.5458984C571.9770508,239.4365234,569.9345703,238.9130859,567.6503906,238.9130859 z M387.9326172,252.0205078h-35.0449219l9.7685547-27.4765625l4.050293-13.3925781h7.5576172l4.0532227,13.4023438 L387.9326172,252.0205078z M365.4814453,243.1318359h9.921875l-4.9223633-14.0615234L365.4814453,243.1318359z M1036.90625,249.3740234h-41.4545898l1.8525391-5.796875c1.4628906-4.578125,3.8999023-8.2919922,7.2431641-11.0390625 c3.4897461-2.8632812,7.6938477-4.3144531,12.4975586-4.3144531c3.7304688,0,7.0742188,0.8203125,9.9394531,2.4384766 c2.8154297,1.5898438,5.0683594,3.6455078,6.6953125,6.1113281c1.6494141,2.5019531,2.5986328,5.1210938,2.8222656,7.7851562 L1036.90625,249.3740234z M1009.034668,240.4853516h16.2924805c-0.7314453-0.7832031-1.6289062-1.4707031-2.7128906-2.0830078 c-1.5166016-0.8564453-3.3896484-1.2900391-5.5693359-1.2900391c-2.7314453,0-4.9741211,0.7509766-6.8569336,2.2958984 C1009.7802734,239.7431641,1009.3959961,240.1015625,1009.034668,240.4853516z" />
        <path fill="#22272E" d="M361.1072998,196.9618073h18.6334229l32.3407898,86.0812836h-17.9143677l-7.2107544-20.5559692h-32.9424438 l-7.2155762,20.5559692h-17.9094849L361.1072998,196.9618073z M381.6681519,247.576416l-7.5775757-21.644455l-3.125946-10.3366852 h-0.9588623l-3.125946,10.3366852l-7.6950378,21.644455H381.6681519z M423.8612976,278.1119995 c-3.8450928-4.5690918-5.7676392-10.9384155-5.7676392-19.112854v-37.2742462h15.7472229v35.3516998 c0,4.1679382,1.0028687,7.4308777,3.0036621,9.798584c2.0056763,2.3628235,4.6473694,3.5466614,7.9347839,3.5466614 c4.4907532,0,8.0570374-1.6437073,10.7035828-4.9310913c2.6416016-3.287384,3.9673767-7.4553223,3.9673767-12.5038147v-31.2620392 h15.7471924v61.3181915h-14.7884216v-7.6950378h-0.9587708c-1.8442993,2.9645081-4.4320984,5.3126526-7.7537842,7.0346375 c-3.3314209,1.7219543-6.9954529,2.5829468-11.0019836,2.5829468 C433.3174744,284.9656372,427.7112427,282.6810913,423.8612976,278.1119995z M490.5875549,221.7248993h14.7884216v8.1744537 h0.9588013c1.5213928-2.8813629,3.8890991-5.2686462,7.0933228-7.1520538 c3.2042236-1.8833923,6.7362061-2.8226471,10.5812988-2.8226471c2.8031006,0,5.3664551,0.4402771,7.6950684,1.3208313v15.749649 c-2.1671753-0.7973938-3.9869995-1.3795319-5.4692383-1.7415466c-1.4871826-0.3619995-3.0672607-0.5454407-4.750061-0.5454407 c-4.6522827,0-8.3358765,1.690155-11.0606995,5.0558319c-2.724823,3.3656616-4.0896912,7.6118774-4.0896912,12.7435455v30.5355682 h-15.7472229V221.7248993z M550.6999512,280.6998291c-4.9702148-2.8470764-8.8348999-6.7313232-11.598877-11.662384 c-2.7687988-4.9311218-4.1483154-10.4785767-4.1483154-16.6522369c0-6.0904694,1.3795166-11.6183777,4.1483154-16.5886078 c2.7639771-4.9726715,6.6286621-8.8813477,11.598877-11.7284698c4.9702148-2.8422089,10.6203613-4.2657776,16.9506226-4.2657776 c6.2518921,0,11.8629761,1.4235687,16.8331909,4.2657776c4.9702148,2.8471222,8.8348389,6.7557983,11.6036987,11.7284698 c2.7639771,4.9702301,4.1483765,10.4981384,4.1483765,16.5886078c0,6.1736603-1.3843994,11.7211151-4.1483765,16.6522369 c-2.7688599,4.9310608-6.6334839,8.8153076-11.6036987,11.662384c-4.9702148,2.8422546-10.5812988,4.2658081-16.8331909,4.2658081 C561.3203125,284.9656372,555.670166,283.5420837,550.6999512,280.6998291z M576.0695801,268.2547302 c2.5633545-1.4431458,4.6082764-3.5270996,6.1296387-6.2519226c1.5214233-2.724823,2.2845459-5.9290466,2.2845459-9.6175995 c0-3.6053619-0.7631226-6.770462-2.2845459-9.4952698c-1.5213623-2.724823-3.5662842-4.8088074-6.1296387-6.2519379 c-2.5682373-1.4431152-5.3713379-2.1695709-8.4190063-2.1695709c-3.0428467,0-5.8508301,0.7264557-8.4141846,2.1695709 c-2.5634155,1.4431305-4.6278076,3.5271149-6.1932373,6.2519379c-1.5605469,2.7248077-2.3432007,5.8899078-2.3432007,9.4952698 c0,3.6053772,0.7826538,6.7949371,2.3432007,9.5588837c1.5654297,2.7639771,3.6298218,4.8674927,6.1932373,6.3106384 c2.5633545,1.4431152,5.3713379,2.1671143,8.4141846,2.1671143 C570.6982422,270.4218445,573.5013428,269.6978455,576.0695801,268.2547302z M611.052002,221.7248993h14.7883301v8.1744537 h0.9588623c1.5213623-2.8813629,3.8890991-5.2686462,7.0932617-7.1520538 c3.2042847-1.8833923,6.7362671-2.8226471,10.5813599-2.8226471c2.8030396,0,5.3664551,0.4402771,7.6950073,1.3208313v15.749649 c-2.1671143-0.7973938-3.9869385-1.3795319-5.4691772-1.7415466c-1.4871826-0.3619995-3.0672607-0.5454407-4.7501221-0.5454407 c-4.6522217,0-8.3358154,1.690155-11.06073,5.0558319c-2.7247925,3.3656616-4.0895996,7.6118774-4.0895996,12.7435455v30.5355682 H611.052002V221.7248993z M663.2295532,279.2567139c-4.1679077-3.8059387-6.2519531-8.7957153-6.2519531-14.9693604 c0-4.0847778,1.0811157-7.6950684,3.248291-10.8210297c2.1622314-3.125946,5.12677-5.5278931,8.8935547-7.2107239 c3.7668457-1.6828308,7.9348145-2.5242615,12.5039062-2.5242615c6.3301392,0,11.7406616,0.9197083,16.2314453,2.7639618v-2.6465454 c0-3.3656769-1.262146-6.0904846-3.7863159-8.1744537c-2.524292-2.0864258-5.9143677-3.128418-10.1605835-3.128418 c-2.8862915,0-5.6698608,0.6604156-8.3555298,1.986145c-2.6856689,1.3232727-4.911499,3.0648041-6.6726074,5.2319489 l-10.0969849-7.9372101c2.9645386-3.8499603,6.6921997-6.8144836,11.1781006-8.898468 c4.4908447-2.0839691,9.3779297-3.125946,14.6709595-3.125946c9.3779297,0,16.5103149,2.1622467,21.3973999,6.4916229 s7.3330688,10.6620026,7.3330688,18.9978943v37.7512207h-15.5075073v-6.2518921h-0.9637451 c-1.8442383,2.4068298-4.2657471,4.3684998-7.2694092,5.8898926c-3.0085449,1.5213928-6.4769897,2.2845459-10.4003296,2.2845459 C672.7296753,284.9656372,667.397522,283.0626831,663.2295532,279.2567139z M693.8287354,268.3134155 c2.6807861-2.9205017,4.026062-6.349762,4.026062-10.2779846c-4.0896606-1.9225464-8.375-2.886261-12.8658447-2.886261 c-8.1744385,0-12.2592773,3.047699-12.2592773,9.1381836c0,2.4851074,0.8806152,4.510376,2.6416626,6.0708923 c1.7611694,1.5654297,4.2903442,2.3432617,7.5776978,2.3432617 C687.5132446,272.7015076,691.1430664,271.2437134,693.8287354,268.3134155z M760.6087646,278.5963135 c-5.7724609-4.2510986-9.8181152-10.2584229-12.1417847-18.0366516l15.2677612-6.0121918 c1.2034912,4.5690765,3.248291,8.2184906,6.1296387,10.9432831c2.8862915,2.724823,6.4916382,4.0847778,10.8209839,4.0847778 c3.6102905,0,6.6921997-0.900116,9.260498-2.7003479c2.5633545-1.8051453,3.8450928-4.3098145,3.8450928-7.5140381 c0-3.209137-1.2230225-5.8312225-3.6689453-7.8760529c-2.4460449-2.0448303-6.7901001-4.2266541-13.0419922-6.5552216 l-5.288208-1.9225311c-5.5327759-1.9225311-10.2633057-4.8674927-14.1867065-8.837326 c-3.9282227-3.9673615-5.8947754-8.9571686-5.8947754-14.9693756c0-4.4859161,1.1643066-8.575592,3.4879761-12.2641296 c2.3236694-3.6836548,5.611084-6.5894623,9.8572998-8.7125702c4.2510986-2.1231079,9.0598755-3.1895599,14.4263306-3.1895599 c7.7733765,0,13.9078979,1.824707,18.3986816,5.4741058c4.4859009,3.644516,7.5727539,7.9151764,9.2555542,12.8022461 l-14.30896,6.012207c-0.8805542-2.6465454-2.4215088-4.8723755-4.6277466-6.6726227 c-2.2062988-1.8051453-5.0289307-2.7052612-8.4729004-2.7052612c-3.5319824,0-6.4329224,0.8218689-8.7174683,2.4655609 s-3.4292603,3.7863617-3.4292603,6.428009c0,2.5682831,1.0859985,4.7501068,3.248291,6.5552368 c2.1621704,1.8002319,5.7284546,3.5466614,10.6987305,5.2294922l5.4104614,1.80513 c7.4553223,2.5658264,13.1642456,5.9510651,17.1316528,10.1581421c3.9673462,4.2070923,5.9534912,9.7203217,5.9534912,16.5299225 c0,5.611084-1.4431763,10.361145-4.3293457,14.2502747c-2.8862915,3.8890991-6.5944214,6.7900391-11.1195068,8.7125549 c-4.5299072,1.9274292-9.1968384,2.886261-14.0056152,2.886261 C773.029541,284.9656372,766.3812866,282.8425293,760.6087646,278.5963135z M838.5131836,282.6223755 c-2.5634155-0.9196777-4.6473389-2.1817932-6.2518921-3.7863464c-3.7668457-3.6053772-5.6502075-8.73703-5.6502075-15.3901062 v-28.2510376h-10.6987305v-13.469986h10.6987305V204.412262h15.7520752v17.3126373h15.0280762v13.469986h-15.0280762v25.3647766 c0,3.1259766,0.6799927,5.3713684,2.0448608,6.7362366c1.1201782,1.2816772,3.0427246,1.9225464,5.7675781,1.9225464 c1.5213623,0,2.7835083-0.2005615,3.786377-0.6017456c1.0028076-0.401123,2.3040771-1.0811157,3.9086914-2.0447998v15.3900757 c-3.4439087,1.3599548-7.0933228,2.0448303-10.9384155,2.0448303 C843.8845215,284.0068054,841.0814819,283.5420837,838.5131836,282.6223755z M880.7111816,280.6998291 c-4.9702148-2.8470764-8.8348389-6.7313232-11.5988159-11.662384c-2.7688599-4.9311218-4.1483765-10.4785767-4.1483765-16.6522369 c0-6.0904694,1.3795166-11.6183777,4.1483765-16.5886078c2.7639771-4.9726715,6.6286011-8.8813477,11.5988159-11.7284698 c4.9702148-2.8422089,10.6204834-4.2657776,16.9506226-4.2657776c6.2518921,0,11.8630981,1.4235687,16.833252,4.2657776 c4.9701538,2.8471222,8.8348999,6.7557983,11.6036987,11.7284698c2.7639771,4.9702301,4.1483765,10.4981384,4.1483765,16.5886078 c0,6.1736603-1.3843994,11.7211151-4.1483765,16.6522369c-2.7687988,4.9310608-6.6335449,8.8153076-11.6036987,11.662384 c-4.9701538,2.8422546-10.5813599,4.2658081-16.833252,4.2658081 C891.331665,284.9656372,885.6813965,283.5420837,880.7111816,280.6998291z M906.0808716,268.2547302 c2.5633545-1.4431458,4.6082764-3.5270996,6.1296997-6.2519226c1.5212402-2.724823,2.2844849-5.9290466,2.2844849-9.6175995 c0-3.6053619-0.7632446-6.770462-2.2844849-9.4952698c-1.5214233-2.724823-3.5663452-4.8088074-6.1296997-6.2519379 c-2.5682373-1.4431152-5.3713989-2.1695709-8.4190674-2.1695709c-3.0427856,0-5.850769,0.7264557-8.4141846,2.1695709 c-2.5632935,1.4431305-4.6277466,3.5271149-6.1931763,6.2519379c-1.5604858,2.7248077-2.3432617,5.8899078-2.3432617,9.4952698 c0,3.6053772,0.7827759,6.7949371,2.3432617,9.5588837c1.5654297,2.7639771,3.6298828,4.8674927,6.1931763,6.3106384 c2.5634155,1.4431152,5.3713989,2.1671143,8.4141846,2.1671143 C900.7094727,270.4218445,903.5126343,269.6978455,906.0808716,268.2547302z M941.0681152,221.7248993h14.7883911v8.1744537 h0.9588013c1.5214233-2.8813629,3.8891602-5.2686462,7.0933838-7.1520538 c3.2042236-1.8833923,6.7362671-2.8226471,10.5812988-2.8226471c2.8030396,0,5.3665161,0.4402771,7.6950684,1.3208313v15.749649 c-2.1671753-0.7973938-3.9869385-1.3795319-5.4692993-1.7415466c-1.4870605-0.3619995-3.0671997-0.5454407-4.75-0.5454407 c-4.6522827,0-8.3359375,1.690155-11.060791,5.0558319c-2.7247925,3.3656616-4.0896606,7.6118774-4.0896606,12.7435455v30.5355682 h-15.7471924V221.7248993z M1001.0582275,280.7585449c-4.8920288-2.8030701-8.7174683-6.6726074-11.4813843-11.6036987 c-2.7689819-4.9262085-4.1484985-10.4736938-4.1484985-16.6473236c0-5.8507843,1.3599854-11.2808533,4.0848389-16.2902222 c2.7247925-5.011795,6.4915771-8.9987488,11.300354-11.9681549c4.8137817-2.9645386,10.1802368-4.4467926,16.1140747-4.4467926 c6.3303223,0,11.7799072,1.3648529,16.348999,4.0896606c4.5690918,2.7248383,8.0324707,6.4524994,10.4002686,11.1805725 c2.362915,4.7305145,3.5467529,9.9795837,3.5467529,15.7520905c0,1.8442841-0.1224365,3.6053772-0.3620605,5.288208h-46.0480347 c0.8022461,4.8919373,2.7443848,8.5951843,5.8312988,11.1194153c3.086731,2.524231,6.7948608,3.786377,11.1242676,3.786377 c3.6054077,0,6.711731-0.777832,9.31427-2.3432617c2.6074219-1.5605164,4.671875-3.6640625,6.1932373-6.3106079 l12.7435303,6.2518921c-6.2519531,10.899292-15.7471924,16.348938-28.4907227,16.348938 C1011.434082,284.9656372,1005.9452515,283.5616455,1001.0582275,280.7585449z M1032.0731201,244.9298706 c-0.161377-1.9225311-0.8609619-3.8255005-2.1035156-5.7089081c-1.2425537-1.8833923-2.9644775-3.4439392-5.1707764-4.6889343 c-2.2012939-1.242569-4.7891846-1.8638306-7.7537231-1.8638306c-3.7668457,0-6.9906006,1.1006775-9.6762695,3.3045044 c-2.6856689,2.2062683-4.6278076,5.1903687-5.8312988,8.9571686H1032.0731201z" />
        <path fill="#E30B5C" d="M1105.1687012,279.0170288c-6.8927002-3.9673767-12.322876-9.3778992-16.2901611-16.2315063 c-3.9674072-6.8536377-5.9534912-14.4459534-5.9534912-22.7818451c0-8.3383484,1.986084-15.9355469,5.9534912-22.7842712 c3.9672852-6.8536377,9.3974609-12.2641449,16.2901611-16.2315063c6.8928223-3.967392,14.5046387-5.9535217,22.8405762-5.9535217 c12.9881592,0,23.7260742,4.691391,32.2233887,14.0692596l-11.4227295,11.0607147 c-5.5279541-6.4916229-12.4256592-9.7398834-20.6783447-9.7398834c-5.3713379,0-10.2584229,1.2229919-14.6660156,3.6689606 c-4.4077148,2.4459839-7.8760986,5.9095001-10.4003906,10.3954163c-2.524292,4.4908142-3.786377,9.6616058-3.786377,15.5148315 c0,5.850769,1.262085,11.0215759,3.786377,15.5075073c2.524292,4.490799,5.9926758,7.9543304,10.4003906,10.4002838 c4.4075928,2.4459839,9.2946777,3.6640625,14.6660156,3.6640625c9.0549316,0,16.6326904-3.7619019,22.7231445-11.300415 l11.5401611,10.9433289c-4.2463379,5.12677-9.2751465,9.0354309-15.086792,11.7211304 c-5.8116455,2.6856689-12.2446289,4.026062-19.2988281,4.026062 C1119.6733398,284.9656372,1112.0615234,282.984375,1105.1687012,279.0170288z M1174.0622559,221.7248993h14.788208v8.1744537 h0.9589844c1.5212402-2.8813629,3.8890381-5.2686462,7.0932617-7.1520538 c3.2042236-1.8833923,6.7362061-2.8226471,10.5812988-2.8226471c2.8031006,0,5.3664551,0.4402771,7.6950684,1.3208313v15.749649 c-2.1672363-0.7973938-3.9869385-1.3795319-5.4692383-1.7415466c-1.4871826-0.3619995-3.0672607-0.5454407-4.7501221-0.5454407 c-4.6522217,0-8.3359375,1.690155-11.0606689,5.0558319c-2.7248535,3.3656616-4.0895996,7.6118774-4.0895996,12.7435455v30.5355682 h-15.7471924V221.7248993z M1241.7423096,251.9057922l-21.1575928-30.1808929h18.6333008l11.6624756,17.5547791h0.723999 l10.9384766-17.5547791h19.2352295l-21.5197754,30.1808929l21.5197754,31.1372986h-18.6335449l-11.7797852-17.9143372h-0.723999 l-11.5401611,17.9143372h-18.6383057L1241.7423096,251.9057922z M1291.0336914,221.7248993h14.7883301v7.6950378h0.9588623 c1.9274902-2.9645233,4.510376-5.3077698,7.7537842-7.0346375c3.248291-1.7219696,6.8731689-2.5829468,10.8845215-2.5829468 c4.324585,0,8.0914307,1.0224152,11.3005371,3.0672607c3.2042236,2.0448303,5.4886475,4.6277771,6.8535156,7.7537384 c2.0008545-3.2042389,4.7453613-5.8116302,8.2332764-7.817337c3.487915-2.000824,7.5921631-3.0036621,12.3227539-3.0036621 c6.9709473,0,12.2838135,2.1475525,15.9282227,6.4329224c3.6494141,4.2902527,5.473999,10.0798645,5.473999,17.3737793v39.4340363 h-15.6296387v-36.5477905c0-3.8499603-0.9050293-6.8096008-2.7053223-8.898468 c-1.8050537-2.0839691-4.3098145-3.1284027-7.5140381-3.1284027c-4.0895996,0-7.3574219,1.6265869-9.798584,4.8748474 c-2.4460449,3.2433472-3.6689453,7.5140381-3.6689453,12.8022308v30.897583h-15.7471924v-36.5477905 c0-3.8499603-0.9440918-6.8096008-2.8275146-8.898468c-1.8834229-2.0839691-4.5495605-3.1284027-7.9934082-3.1284027 c-3.8450928,0-6.9564209,1.6265869-9.3193359,4.8748474c-2.3626709,3.2433472-3.5466309,7.5140381-3.5466309,12.8022308v30.897583 h-15.7471924V221.7248993z M1405.1875,280.3965454c-4.6081543-3.0427856-7.8369141-7.0101624-9.6762695-11.9021301 l14.0643311-6.1296082c1.2816162,2.8862305,3.1063232,5.0680542,5.4692383,6.5503235 c2.362793,1.4871521,5.1119385,2.2258606,8.2380371,2.2258606c2.8813477,0,5.2880859-0.4598694,7.2106934-1.3844604 c1.9224854-0.9196777,2.8863525-2.4215088,2.8863525-4.5054932c0-2.0056763-0.8806152-3.5075073-2.6466064-4.510376 c-1.7611084-1.0028381-4.4077148-1.9029541-7.9346924-2.7052307l-7.2109375-1.5605469 c-4.9700928-1.2034149-9.098877-3.3852234-12.3862305-6.5552216c-3.2873535-3.1650848-4.9262695-7.1128998-4.9262695-11.8385315 c0-3.529541,1.0616455-6.6946259,3.1846924-9.5026093c2.1230469-2.8031006,5.0093994-4.9702301,8.6586914-6.4916382 c3.6445312-1.5213776,7.6706543-2.2845306,12.0783691-2.2845306c12.6651611,0,21.1185303,4.4467926,25.3695068,13.3452606 l-13.4674072,5.8923492c-2.4020996-4.3318176-6.2520752-6.4940796-11.5401611-6.4940796 c-2.7248535,0-4.887085,0.5038757-6.4916992,1.5018463c-1.6044922,1.0052948-2.4018555,2.2674103-2.4018555,3.7888184 c0,2.8862457,2.7198486,5.0533905,8.1744385,6.496521l9.0158691,2.1622314 c6.0904541,1.5214081,10.6790771,3.8450775,13.7659912,6.9710236c3.0819092,3.1259613,4.6276855,6.9759369,4.6276855,11.5450287 c0,3.9282227-1.1397705,7.3917542-3.4243164,10.3954163c-2.2845459,3.0085449-5.4104004,5.3517761-9.3779297,7.0346069 c-3.9674072,1.6828308-8.3553467,2.5242615-13.1641846,2.5242615 C1415.8275146,284.9656372,1409.7957764,283.4442444,1405.1875,280.3965454z M1473.6552734,280.6998291 c-4.9702148-2.8470764-8.8348389-6.7313232-11.5987549-11.662384c-2.7689209-4.9311218-4.1484375-10.4785767-4.1484375-16.6522369 c0-6.0904694,1.3795166-11.6183777,4.1484375-16.5886078c2.763916-4.9726715,6.62854-8.8813477,11.5987549-11.7284698 c4.9702148-2.8422089,10.6204834-4.2657776,16.9505615-4.2657776c6.2519531,0,11.8631592,1.4235687,16.833252,4.2657776 c4.9703369,2.8471222,8.8349609,6.7557983,11.6037598,11.7284698c2.763916,4.9702301,4.1483154,10.4981384,4.1483154,16.5886078 c0,6.1736603-1.3843994,11.7211151-4.1483154,16.6522369c-2.7687988,4.9310608-6.6334229,8.8153076-11.6037598,11.662384 c-4.9700928,2.8422546-10.5812988,4.2658081-16.833252,4.2658081 C1484.2757568,284.9656372,1478.6254883,283.5420837,1473.6552734,280.6998291z M1499.0249023,268.2547302 c2.5633545-1.4431458,4.6082764-3.5270996,6.1297607-6.2519226c1.5213623-2.724823,2.2844238-5.9290466,2.2844238-9.6175995 c0-3.6053619-0.7630615-6.770462-2.2844238-9.4952698c-1.5214844-2.724823-3.5664062-4.8088074-6.1297607-6.2519379 c-2.5682373-1.4431152-5.3713379-2.1695709-8.4190674-2.1695709c-3.0427246,0-5.850708,0.7264557-8.4141846,2.1695709 c-2.5632324,1.4431305-4.6278076,3.5271149-6.1931152,6.2519379c-1.5605469,2.7248077-2.3432617,5.8899078-2.3432617,9.4952698 c0,3.6053772,0.7827148,6.7949371,2.3432617,9.5588837c1.5653076,2.7639771,3.6298828,4.8674927,6.1931152,6.3106384 c2.5634766,1.4431152,5.37146,2.1671143,8.4141846,2.1671143 C1493.6535645,270.4218445,1496.456665,269.6978455,1499.0249023,268.2547302z M1534.0073242,221.7248993h14.7883301v7.6950378 h0.9588623c1.8443604-2.9645233,4.4516602-5.3077698,7.8173828-7.0346375 c3.3656006-1.7219696,7.0101318-2.5829468,10.9384766-2.5829468c7.3720703,0,12.9830322,2.2454071,16.8331299,6.7313385 c3.8450928,4.4908142,5.7675781,10.622879,5.7675781,18.3961792v38.1132202h-15.7471924v-36.1857758 c0-3.9282532-1.0028076-6.9759369-3.00354-9.1381683c-2.0058594-2.1671448-4.80896-3.2507172-8.4190674-3.2507172 c-4.2463379,0-7.6755371,1.6461487-10.2780762,4.9335327c-2.6074219,3.287384-3.9086914,7.416214-3.9086914,12.381546v31.2595825 h-15.7471924V221.7248993z" />
    </g>
</svg>
