<?xml version="1.0" encoding="utf-8"?>
<svg xmlns="http://www.w3.org/2000/svg" xmlns:xlink="http://www.w3.org/1999/xlink"
    version="1.1"
    viewBox="0 0 108 108">
    <style type="text/css">
        .material_grey_300
        {
            fill: #E0E0E0;
        }
    </style>
    <path class="material_grey_300" d="M23.6845703,98.8740234c-4.6083984,0-8.6777344-3.1035156-9.8964844-7.5478516L1.9526367,48.1738281 c-0.4667969-1.7001953-0.1210938-3.4804688,0.9482422-4.8818359c1.0698242-1.4023438,2.6943359-2.2070312,4.4580078-2.2070312 h4.1196289c3.6689453-9.7480469,13.0092773-16.25,23.4550781-16.25c1.6655273,0,3.3798828,0.1835938,5.1044922,0.5439453 l9.6518555-13.7841797c1.0771484-1.5380859,2.8486328-2.4580078,4.7382812-2.4609375 c1.8925781,0.0009766,3.6645508,0.921875,4.7416992,2.4628906l14.5947266,20.8417969h10.1518555 c4.715332,0,8.5517578,3.8359375,8.5517578,8.5517578v0.0947266h8.1728516c1.7636719,0,3.3886719,0.8046875,4.4580078,2.2070312 c1.0693359,1.4013672,1.4150391,3.1816406,0.9482422,4.8818359L94.2119141,91.3261719 c-1.21875,4.4443359-5.2880859,7.5478516-9.8964844,7.5478516H23.6845703z M59.6357422,32.4384766l-5.206543-7.4355469 l-3.7807617,5.4003906c0.7929688,0.6386719,1.543457,1.3203125,2.2407227,2.0351562H59.6357422z"/>
    <path class="material_grey_300" d="M54.4294014,10.0832558c1.5229988,0.0014,3.0222168,0.7137794,3.961544,2.0573616l14.8789978,21.2481461 h10.6464539c4.1982422,0,7.6016235,3.4033813,7.6016235,7.6016197v1.0448532h9.1232147 c3.0728912,0,5.3030548,2.9241104,4.4902344,5.8874016c0,0-8.9653778,32.6872177-11.8356705,43.1525269 c-1.1093445,4.0449219-4.7859573,6.8488922-8.9802322,6.8488922H23.6844006c-4.1941662,0-7.8708935-2.8039703-8.980238-6.8488922 C11.8338737,80.6098557,2.8684731,47.9226379,2.8684731,47.9226379c-0.8126907-2.9632912,1.4174728-5.8874016,4.4902344-5.8874016 H12.14571c3.2695618-9.4514008,12.2247448-16.2497272,22.7880516-16.2497272c1.9018555,0,3.7434006,0.2427273,5.5184021,0.6586914 l10.0161629-14.3045101c0.9393272-1.3418541,2.4380913-2.0538902,3.9610748-2.0555077V10.0832558 M52.4837074,33.3887634h8.9771118 l-7.0314178-10.0423813v0.0001087l-5.0780754,7.252346C50.4751625,31.4389992,51.5232735,32.3692932,52.4837074,33.3887634 M54.4311447,8.1832542c-0.0016365,0-0.003273,0-0.0049248,0c-2.1988945,0.0036736-4.2603645,1.0754013-5.5144196,2.8668365 l-9.2968712,13.2772636c-1.5795822-0.293478-3.149086-0.4418449-4.6811676-0.4418449 c-10.6209526,0-20.1403542,6.4749527-24.1035805,16.2497292H7.3587074c-2.0622711,0-3.962307,0.9404716-5.212944,2.5802689 c-1.250618,1.639782-1.655056,3.7208748-1.1096344,5.7096558L12.8718376,91.577713 c1.3316002,4.8553238,5.7778893,8.2463379,10.8125629,8.2463379H84.315567c5.034668,0,9.480957-3.3910141,10.8125763-8.2463608 l11.8356552-43.1524887c0.5454941-1.9887276,0.1411285-4.0698013-1.109436-5.7095833 c-1.2506332-1.6398735-3.1507492-2.5803795-5.2131271-2.5803795h-7.2613602 c-0.4336319-4.8401871-4.5123749-8.6464748-9.4634781-8.6464748h-9.657402L59.9473076,11.0507812 C58.6937103,9.2576904,56.6312904,8.1852722,54.4311447,8.1832542L54.4311447,8.1832542z M51.9274483,30.2322807L54.42939,26.65909 l3.381649,4.8296738h-4.5258179C52.8499451,31.0561371,52.3967171,30.6367474,51.9274483,30.2322807L51.9274483,30.2322807z"/>
    <path fill="#EEEEEE" d="M80.3685379,43.5259018L58.3909492,12.1406469c-1.5310783-2.1899061-4.5477676-2.7225361-6.73489-1.188673 c-2.1880531,1.5320063-2.7206802,4.5477667-1.1886749,6.7358179l18.0913162,25.83811H80.3685379z"/>
    <path fill-rule="evenodd" clip-rule="evenodd" fill="#FF87AE" d="M50.1991539,46.3764915V33.388813h33.7172737c4.1982346,0,7.6015778,3.4033394,7.6015778,7.6015739v5.3861046 H50.1991539z"/>
    <path fill="#E1115C" d="M47.5068016,36.3470039l3.88554-3.9083939l11.1530418,11.1537209l-3.8856544,3.8854218L47.5068016,36.3470039z"/>
    <path fill="#49CBC4" d="M34.9337807,25.7854557c-13.3272266,0-24.1311893,10.8039646-24.1311893,24.1311893h48.2623825 C59.0649719,36.5894203,48.2611237,25.7854557,34.9337807,25.7854557z"/>
    <path fill="#F4F4F4" d="M57.2032013,10.9519739c-2.1880493-1.5329351-5.2038116-0.9993773-6.73489,1.1877451L28.4914207,43.5259018 h11.8085594l18.0909691-25.837183C59.9238815,15.5006685,59.3912506,12.4849081,57.2032013,10.9519739z"/>
    <path fill="#E4E4E4" d="M40.2999802,43.5259018 41.700798,41.5252914 29.8922405,41.5252914 28.4914207,43.5259018z"/>
    <path fill="#F9F9F9" d="M100.6412888,42.0351868H7.3587084c-3.0728278,0-5.3029833,2.9241295-4.4902353,5.8874626 c0,0,8.9653921,32.687252,11.835701,43.1525154c1.1093359,4.0449524,4.7860126,6.8489151,8.9802399,6.8489151h60.631176 c4.1942215,0,7.870903-2.8039627,8.9802399-6.8489151c2.8703079-10.4652634,11.835701-43.1525154,11.835701-43.1525154 C105.9442749,44.9593163,103.714119,42.0351868,100.6412888,42.0351868z"/>
    <path fill="#FF3E83" d="M39.7433395,86.7899246c-0.7590446,0-1.5255127-0.1930084-2.228878-0.5994415 c-2.1360893-1.2341461-2.8691483-3.9641037-1.635006-6.1001892l14.2529488-24.686554 c1.2341423-2.1397972,3.9659576-2.8672905,6.1001854-1.635006c2.1360893,1.2341423,2.8691483,3.9641037,1.635006,6.1001892 L43.6146469,84.5554733C42.7869377,85.9881973,41.285553,86.7899246,39.7433395,86.7899246z"/>
    <path fill="#00C3F8" d="M68.2529526,86.7880707H39.7470512c-2.4664268,0-4.4651833-1.9987564-4.4651833-4.4651871 c0-2.466423,1.9987564-4.4651794,4.4651833-4.4651794h28.5059013c2.466423,0,4.4651794,1.9987564,4.4651794,4.4651794 C72.718132,84.7893143,70.7193756,86.7880707,68.2529526,86.7880707z"/>
    <path fill="#FFAA37" d="M68.2566605,86.7899246c-1.5422134,0-3.0435944-0.8017273-3.8713074-2.2344513L50.1324043,59.8689232 c-1.2341423-2.1360855-0.5010834-4.8660469,1.635006-6.1001892c2.1379395-1.2341423,4.8660431-0.5010796,6.1001854,1.635006 l14.2529488,24.686554c1.2341461,2.1360855,0.5010834,4.8660431-1.6350021,6.1001892 C69.7821732,86.5969162,69.0138474,86.7899246,68.2566605,86.7899246z"/>
</svg>
